<svg width="66" height="65" viewBox="0 0 66 65" fill="none" xmlns="http://www.w3.org/2000/svg">
<g clip-path="url(#clip0)">
<path d="M64.7895 22.1701C64.7895 22.1701 86.0536 24.8131 78.0275 54.6774C78.0275 54.6774 47.2915 44.5567 64.7895 22.1701Z" fill="url(#paint0_linear)"/>
<path d="M78.0275 54.6774C72.8186 46.0493 64.7895 22.1701 64.7895 22.1701C47.2915 44.5567 78.0275 54.6774 78.0275 54.6774Z" fill="url(#paint1_linear)"/>
<path d="M60.3144 10.2437C60.3144 10.2437 71.4761 -8.04751 95.389 11.5604C95.3894 11.5602 73.5138 35.4056 60.3144 10.2437Z" fill="url(#paint2_linear)"/>
<path d="M95.3895 11.5604C85.3821 12.7558 60.3149 10.2437 60.3149 10.2437C73.5139 35.4056 95.3895 11.5604 95.3895 11.5604Z" fill="url(#paint3_linear)"/>
<path d="M60.5551 0.302199C60.5551 0.302199 80.5378 -7.43393 65.4882 -34.4489C65.488 -34.4489 38.1371 -17.1556 60.5551 0.302199Z" fill="url(#paint4_linear)"/>
<path d="M65.4881 -34.4492C62.5345 -24.8132 60.555 0.301725 60.555 0.301725C38.1372 -17.1559 65.4881 -34.4492 65.4881 -34.4492Z" fill="url(#paint5_linear)"/>
<path d="M64.7894 22.1705C60.3012 27.9125 58.9872 32.8473 59.513 37.0119L70.3665 39.8097L77.0652 30.7268C76.6838 30.0629 76.2754 29.4483 75.8467 28.8818C71.3887 22.9914 64.7894 22.1705 64.7894 22.1705Z" fill="url(#paint6_linear)"/>
<path d="M60.3144 10.2436C65.1637 19.4877 71.1838 22.1171 76.8603 21.7447L88.117 6.48158C69.2056 -4.32506 60.3144 10.2436 60.3144 10.2436Z" fill="url(#paint7_linear)"/>
<path d="M60.5551 0.302199C60.5551 0.302199 80.5378 -7.43393 65.4882 -34.4489C65.488 -34.4489 38.1371 -17.1556 60.5551 0.302199Z" fill="url(#paint8_linear)"/>
<path d="M40.7365 19.6994C40.7365 19.6994 23.3436 32.6307 21.3192 26.4346C19.2947 20.2384 15.3309 26.3601 15.4516 19.1981C15.5722 12.0361 12.5178 15.5798 12.5828 7.43888C12.6479 -0.702065 23.8126 -10.1865 32.2955 -1.83867C38.1441 3.91681 53.4957 11.9465 40.7365 19.6994Z" fill="url(#paint9_radial)"/>
<path d="M23.9932 25.9225C23.8339 26.0706 23.7034 26.2473 23.6091 26.4433L23.566 26.5017L23.5862 26.4962C23.4577 26.7872 23.4063 27.1162 23.4573 27.4543C23.4935 27.6934 23.5799 27.9115 23.7 28.1049C23.7114 28.1055 23.7231 28.1062 23.7346 28.1068C24.045 28.1221 24.3761 28.1078 24.7258 28.0662C24.7392 28.0645 24.7525 28.0634 24.766 28.0617C24.9424 28.0397 25.1231 28.0111 25.3081 27.9763C25.3198 27.974 25.3317 27.9716 25.3435 27.9693C25.7213 27.8966 26.1154 27.7979 26.5227 27.6767C26.5341 27.6734 26.5457 27.6698 26.5573 27.6665C27.1843 27.4784 27.8414 27.2384 28.5145 26.9591C34.073 24.6532 40.7368 19.6995 40.7368 19.6995C49.303 14.4945 45.1985 9.16474 39.806 4.48221L23.9932 25.9225ZM26.3269 25.8979C26.2825 25.8584 26.2357 25.8217 26.1876 25.7869L26.5725 25.682C26.4914 25.7536 26.4075 25.8266 26.3269 25.8979Z" fill="url(#paint10_linear)"/>
<path d="M45.2927 12.8559C45.1424 11.9714 44.6669 11.1754 43.9967 10.579C42.4251 9.18038 37.8778 5.40412 33.1118 3.98193C27.2122 2.22134 36.08 6.16992 38.5215 9.00834C40.9629 11.8468 34.134 8.04115 28.4261 9.23678C22.7183 10.4324 37.3808 11.7476 39.2522 13.6936C41.1236 15.6397 35.4036 14.4555 32.9617 16.141C30.5199 17.8265 38.2354 17.6102 39.7291 17.096C41.2228 16.582 36.5185 20.5291 36.407 21.7312C36.2954 22.9334 43.1251 17.6914 44.6808 15.5039C45.3475 14.5664 45.4235 13.6255 45.2927 12.8559Z" fill="url(#paint11_linear)"/>
<path d="M43.9329 16.9248C43.9329 16.9248 26.9282 20.3021 26.9945 33.2262C27.0608 46.1502 32.2445 39.439 33.2489 42.5206C34.2535 45.6024 34.1945 52.3478 43.7582 51.4418C53.322 50.536 57.9998 13.722 43.9329 16.9248Z" fill="url(#paint12_radial)"/>
<path d="M51.06 20.5786C49.9619 18.3491 47.2009 17.5113 45.0052 18.6749C42.1815 20.1713 38.025 22.4924 36.132 24.1067C33.1309 26.666 39.1266 23.929 41.1587 23.4389C43.1908 22.9488 37.4026 27.6687 35.7951 31.5742C34.1876 35.4795 37.3645 34.084 38.5701 31.155C39.7758 28.226 40.45 30.871 39.5233 35.04C38.5965 39.2089 41.0083 38.2033 43.2253 30.4517C45.4419 22.7002 48.9418 21.6222 47.9505 24.1525C46.9595 26.6828 46.8248 30.6406 47.5428 32.3632C47.9412 33.3186 50.6318 28.0135 51.4651 23.4004C51.6313 22.4807 51.5161 21.5291 51.1123 20.6863C51.095 20.6501 51.0775 20.6142 51.06 20.5786Z" fill="url(#paint13_linear)"/>
<path d="M51.6555 18.1883C50.4698 19.3383 49.6833 20.8123 49.3331 22.393C48.5915 25.7411 47.6016 33.3818 51.6503 40.6475C57.0376 50.3153 61.2699 44.254 61.7417 42.457C62.2135 40.6601 65.967 42.4621 69.7252 40.2196C73.4835 37.9772 71.8467 32.8075 74.1969 30.3389C76.5471 27.8702 78.8944 27.873 77.2566 23.3773C75.6189 18.8817 79.8468 16.6399 70.46 14.6065C62.6375 12.9119 55.4634 14.4947 51.6555 18.1883Z" fill="url(#paint14_radial)"/>
<path d="M42.8109 10.6589C42.8109 10.6589 29.7371 1.30183 30.9293 -8.85451C31.7631 -12.5673 35.92 -12.6877 36.2602 -15.4854C36.6003 -18.283 42.5635 -21.0292 44.5048 -18.1263C46.4461 -15.2233 52.2558 -19.8521 55.2536 -16.3792C58.2517 -12.9061 54.4955 20.7852 42.8109 10.6589Z" fill="url(#paint15_radial)"/>
<path d="M55.2185 -16.4163L38.2131 6.64166C40.6777 9.13133 42.8112 10.6588 42.8112 10.6588C52.2469 18.8364 56.5122 -1.56048 56.2256 -11.5434C56.2171 -11.8386 56.2046 -12.1246 56.1882 -12.4005C56.1879 -12.4044 56.1877 -12.4082 56.1875 -12.4121C56.1713 -12.6841 56.151 -12.9463 56.1269 -13.1976C56.1263 -13.2041 56.1257 -13.2108 56.125 -13.2172C56.1012 -13.4645 56.0735 -13.701 56.0423 -13.9262C56.0411 -13.9354 56.0397 -13.9446 56.0385 -13.9539C56.0072 -14.1749 55.9725 -14.3846 55.9341 -14.5823C55.932 -14.5929 55.93 -14.6036 55.9279 -14.6141C55.9089 -14.7104 55.8891 -14.8038 55.8685 -14.8942C55.8665 -14.903 55.8645 -14.9112 55.8625 -14.92C55.8432 -15.0031 55.8232 -15.0836 55.8022 -15.1613C55.7994 -15.1714 55.7968 -15.1819 55.7942 -15.192C55.7722 -15.2731 55.7493 -15.351 55.7256 -15.4259C55.7216 -15.4382 55.7176 -15.4504 55.7136 -15.4628C55.6918 -15.5304 55.6692 -15.5953 55.6462 -15.6576C55.6432 -15.6657 55.6403 -15.6741 55.6373 -15.6822C55.6121 -15.7486 55.586 -15.8112 55.5593 -15.8713C55.5536 -15.884 55.5478 -15.8964 55.5421 -15.9089C55.5169 -15.9636 55.491 -16.016 55.4648 -16.065C55.4623 -16.0698 55.4597 -16.0751 55.457 -16.0799C55.4288 -16.1314 55.3994 -16.1791 55.3696 -16.2242C55.3625 -16.2348 55.3554 -16.2455 55.3481 -16.2559C55.3177 -16.2999 55.2868 -16.3416 55.2548 -16.3785C55.2548 -16.3785 55.2545 -16.3789 55.2545 -16.379C55.2423 -16.3925 55.23 -16.4034 55.2185 -16.4163Z" fill="url(#paint16_linear)"/>
<path d="M47.3583 12.0045C46.4641 11.9334 45.6289 11.5309 44.975 10.9164C43.4419 9.47567 39.2756 5.28275 37.4345 0.662458C35.1554 -5.0568 39.8782 3.42409 42.9228 5.60302C45.9675 7.78195 41.5686 1.31895 42.251 -4.4726C42.9334 -10.2642 45.5495 4.22293 47.6545 5.91343C49.7596 7.60391 48.0705 2.01241 49.5317 -0.569916C50.9929 -3.15224 51.4648 4.55203 51.0857 6.08536C50.7067 7.61869 54.219 2.58183 55.4066 2.36365C56.5943 2.1453 51.9811 9.41512 49.941 11.1594C49.0668 11.9068 48.1362 12.0662 47.3583 12.0045Z" fill="url(#paint17_linear)"/>
<path d="M48.8766 12.214C48.8766 12.214 42.7939 0.00918129 50.6487 -8.89703C53.9499 -12.0656 54.6294 -9.81983 57.8133 -12.7118C60.9971 -15.6038 64.3959 -13.9996 66.7348 -11.0502C69.0736 -8.10085 76.2514 -8.48372 75.8799 -2.60471C75.5082 3.27432 72.9858 3.83636 74.4152 6.23711C75.8445 8.63786 76.4112 12.3042 69.3595 14.6984C62.3077 17.0926 50.9853 16.8606 48.8766 12.214Z" fill="url(#paint18_radial)"/>
<path d="M51.2482 18.5311C50.706 19.2457 50.4503 20.1372 50.4736 21.0339C50.5282 23.1369 50.8837 29.0371 53.1061 33.4868C55.857 38.9947 52.672 29.8249 53.0728 26.1023C53.4736 22.3798 55.3683 29.9646 60.1443 33.3108C64.9204 36.6569 55.8509 25.0608 55.9906 22.3647C56.1303 19.6684 59.1787 24.6512 62.0784 25.2796C64.9781 25.908 59.5431 20.4275 58.1463 19.6897C56.7497 18.9517 62.8465 19.6836 63.8 18.9428C64.7533 18.202 56.2575 16.8051 53.5979 17.1664C52.4583 17.3213 51.7197 17.9095 51.2482 18.5311Z" fill="url(#paint19_linear)"/>
<path d="M52.4918 14.758C50.0158 14.5447 48.2323 12.2765 48.5189 9.80802C48.8875 6.63361 49.5406 1.91793 50.357 -0.43204C51.6515 -4.15788 51.2791 2.42275 51.5603 4.49384C51.8416 6.56493 54.355 0.667235 57.4099 -2.249C60.4647 -5.16524 59.7838 -2.14844 57.4925 0.0387472C55.2013 2.22577 57.4796 2.99819 61.7749 -1.24322C64.8138 -4.2438 64.8659 -0.746643 59.0072 4.41023C52.9553 9.73708 52.7727 12.9403 54.9174 11.2716C57.3286 9.39586 59.0497 7.43026 60.9157 7.4737C61.9506 7.49779 59.2629 11.6586 55.2675 14.1104C54.4709 14.5991 53.5426 14.8376 52.6105 14.7674C52.571 14.7645 52.5314 14.7613 52.4918 14.758Z" fill="url(#paint20_linear)"/>
<path d="M57.5501 -12.48C57.5229 -12.4566 57.4963 -12.4345 57.4695 -12.4121C57.4106 -12.3627 57.3525 -12.3148 57.2954 -12.2689C57.2659 -12.2452 57.2366 -12.2214 57.2075 -12.1987C57.1494 -12.1529 57.0921 -12.1096 57.0357 -12.0677C57.0128 -12.0507 56.9894 -12.0324 56.9668 -12.016C56.895 -11.9636 56.8247 -11.9144 56.7554 -11.8673C56.721 -11.844 56.6875 -11.8224 56.6538 -11.8004C56.6161 -11.7758 56.5784 -11.7513 56.5415 -11.7283C56.5046 -11.7053 56.4681 -11.6827 56.432 -11.6613C56.3997 -11.642 56.3678 -11.6237 56.3362 -11.6056C56.2992 -11.5845 56.262 -11.5625 56.2257 -11.543L56.2255 -11.543C54.2742 -10.4818 53.3185 -11.4593 50.649 -8.89678C42.7942 0.00943334 48.8769 12.2143 48.8769 12.2143C49.7876 14.221 51.3289 16.8803 54.5904 17.3843L73.0295 -7.55117C72.8948 -7.62824 72.7577 -7.70299 72.6185 -7.77565C72.6166 -7.77661 72.6146 -7.77774 72.6127 -7.77869C71.8763 -8.16272 71.0848 -8.4899 70.3141 -8.81897C70.2405 -8.85035 70.1671 -8.88192 70.0937 -8.9135C70.0477 -8.93339 70.0017 -8.95311 69.956 -8.97305C69.8308 -9.02738 69.7069 -9.08208 69.5838 -9.13727C69.5644 -9.14607 69.5451 -9.15506 69.5258 -9.1637C69.4046 -9.21864 69.2846 -9.27393 69.1664 -9.33021C69.1473 -9.3394 69.1279 -9.34874 69.1087 -9.35794C68.9905 -9.41473 68.874 -9.47234 68.7596 -9.53114C68.7428 -9.5398 68.7257 -9.54841 68.7089 -9.55725C68.5906 -9.61868 68.4743 -9.68145 68.3606 -9.7457C68.3497 -9.75188 68.3384 -9.75801 68.3274 -9.76433C68.2051 -9.83422 68.0857 -9.90578 67.97 -9.97967C67.9655 -9.98255 67.9613 -9.98547 67.9568 -9.98834C67.8442 -10.0606 67.7352 -10.1351 67.6295 -10.212C67.6193 -10.2193 67.6095 -10.2269 67.5993 -10.2344C67.499 -10.3083 67.4024 -10.3846 67.3096 -10.4634C67.2992 -10.4723 67.2886 -10.4812 67.2781 -10.4903C67.1853 -10.5703 67.0967 -10.6532 67.0121 -10.739C67.0048 -10.7464 66.9973 -10.7536 66.9901 -10.7612C66.9 -10.8539 66.8147 -10.95 66.7353 -11.05C65.5658 -12.5247 64.1315 -13.663 62.5914 -14.0712C62.3027 -14.1478 62.0102 -14.1987 61.7151 -14.2212C61.6167 -14.2285 61.5181 -14.2332 61.4191 -14.2342C61.2214 -14.2365 61.0223 -14.2258 60.8228 -14.2016C59.8248 -14.0799 58.8088 -13.6152 57.8138 -12.7113C57.7235 -12.6299 57.6362 -12.5536 57.5501 -12.48Z" fill="url(#paint21_linear)"/>
<path d="M16.0373 37.9669C16.0373 37.9669 31.4705 25.2683 40.3315 23.6156C49.1925 21.9628 55.1579 19.3512 55.065 15.4262C54.9723 11.5015 48.5058 8.71574 38.0716 16.3409C27.6374 23.966 17.6201 33.96 14.7977 36.8724C11.9753 39.7848 14.2282 40.12 16.0373 37.9669Z" fill="url(#paint22_linear)"/>
<path d="M17.6144 38.0328C17.3259 36.1237 15.5445 34.8099 13.6354 35.0983C11.7263 35.3867 10.4125 37.1681 10.7009 39.0772C10.9893 40.9863 12.7708 42.3001 14.6799 42.0117C16.5889 41.7233 17.9028 39.9419 17.6144 38.0328Z" fill="url(#paint23_radial)"/>
<path d="M22.414 35.5339C22.2708 34.5858 21.3861 33.9334 20.4381 34.0766C19.4901 34.2199 18.8377 35.1045 18.9809 36.0525C19.1241 37.0005 20.0088 37.6529 20.9568 37.5097C21.9048 37.3665 22.5572 36.4819 22.414 35.5339Z" fill="url(#paint24_radial)"/>
<path d="M20.9355 30.6491C20.7923 29.7011 19.9076 29.0487 18.9596 29.1919C18.0116 29.3351 17.3592 30.2197 17.5024 31.1677C17.6456 32.1158 18.5302 32.7682 19.4783 32.625C20.4263 32.4817 21.0787 31.5971 20.9355 30.6491Z" fill="url(#paint25_radial)"/>
<path d="M26.7548 31.9172C26.6116 30.9691 25.727 30.3167 24.7789 30.4599C23.8309 30.6032 23.1785 31.4878 23.3217 32.4358C23.465 33.3838 24.3496 34.0362 25.2976 33.893C26.2456 33.7498 26.898 32.8652 26.7548 31.9172Z" fill="url(#paint26_radial)"/>
<path d="M26.891 26.9347C26.7478 25.9867 25.8632 25.3343 24.9152 25.4775C23.9672 25.6207 23.3147 26.5054 23.458 27.4534C23.6012 28.4014 24.4858 29.0538 25.4338 28.9106C26.3818 28.7674 27.0343 27.8828 26.891 26.9347Z" fill="url(#paint27_radial)"/>
</g>
<defs>
<linearGradient id="paint0_linear" x1="74.6994" y1="61.4535" x2="63.343" y2="9.0109" gradientUnits="userSpaceOnUse">
<stop offset="0.003" stop-color="#FFE000"/>
<stop offset="0.018" stop-color="#FCE000"/>
<stop offset="0.319" stop-color="#C5DD00"/>
<stop offset="0.464" stop-color="#AFDC00"/>
<stop offset="0.55" stop-color="#A7D200"/>
<stop offset="0.695" stop-color="#93B800"/>
<stop offset="0.879" stop-color="#718E00"/>
<stop offset="1" stop-color="#586E00"/>
</linearGradient>
<linearGradient id="paint1_linear" x1="62.8283" y1="44.6439" x2="78.7255" y2="33.1207" gradientUnits="userSpaceOnUse">
<stop stop-color="#AFDC00" stop-opacity="0"/>
<stop offset="0.472" stop-color="#84A600" stop-opacity="0.472"/>
<stop offset="1" stop-color="#586E00"/>
</linearGradient>
<linearGradient id="paint2_linear" x1="100.193" y1="17.3852" x2="47.7239" y2="6.14427" gradientUnits="userSpaceOnUse">
<stop offset="0.003" stop-color="#FFE000"/>
<stop offset="0.018" stop-color="#FCE000"/>
<stop offset="0.319" stop-color="#C5DD00"/>
<stop offset="0.464" stop-color="#AFDC00"/>
<stop offset="0.55" stop-color="#A7D200"/>
<stop offset="0.695" stop-color="#93B800"/>
<stop offset="0.879" stop-color="#718E00"/>
<stop offset="1" stop-color="#586E00"/>
</linearGradient>
<linearGradient id="paint3_linear" x1="79.9887" y1="21.2857" x2="76.0321" y2="2.05377" gradientUnits="userSpaceOnUse">
<stop stop-color="#AFDC00" stop-opacity="0"/>
<stop offset="0.472" stop-color="#84A600" stop-opacity="0.472"/>
<stop offset="1" stop-color="#586E00"/>
</linearGradient>
<linearGradient id="paint4_linear" x1="60.6117" y1="-40.2136" x2="62.3533" y2="13.4174" gradientUnits="userSpaceOnUse">
<stop offset="0.003" stop-color="#FFE000"/>
<stop offset="0.018" stop-color="#FCE000"/>
<stop offset="0.319" stop-color="#C5DD00"/>
<stop offset="0.464" stop-color="#AFDC00"/>
<stop offset="0.55" stop-color="#A7D200"/>
<stop offset="0.695" stop-color="#93B800"/>
<stop offset="0.879" stop-color="#718E00"/>
<stop offset="1" stop-color="#586E00"/>
</linearGradient>
<linearGradient id="paint5_linear" x1="53.1824" y1="-21.0199" x2="71.4057" y2="-13.7091" gradientUnits="userSpaceOnUse">
<stop stop-color="#AFDC00" stop-opacity="0"/>
<stop offset="0.472" stop-color="#84A600" stop-opacity="0.472"/>
<stop offset="1" stop-color="#586E00"/>
</linearGradient>
<linearGradient id="paint6_linear" x1="84.8763" y1="19.7185" x2="61.6912" y2="34.8269" gradientUnits="userSpaceOnUse">
<stop stop-color="#AFDC00" stop-opacity="0"/>
<stop offset="0.472" stop-color="#84A600" stop-opacity="0.472"/>
<stop offset="1" stop-color="#586E00"/>
</linearGradient>
<linearGradient id="paint7_linear" x1="83.671" y1="-4.47468" x2="65.7981" y2="19.7595" gradientUnits="userSpaceOnUse">
<stop stop-color="#AFDC00" stop-opacity="0"/>
<stop offset="0.472" stop-color="#84A600" stop-opacity="0.472"/>
<stop offset="1" stop-color="#586E00"/>
</linearGradient>
<linearGradient id="paint8_linear" x1="66.692" y1="-23.8351" x2="58.6875" y2="-10.2865" gradientUnits="userSpaceOnUse">
<stop stop-color="#AFDC00" stop-opacity="0"/>
<stop offset="0.472" stop-color="#84A600" stop-opacity="0.472"/>
<stop offset="1" stop-color="#586E00"/>
</linearGradient>
<radialGradient id="paint9_radial" cx="0" cy="0" r="1" gradientUnits="userSpaceOnUse" gradientTransform="translate(63.1921 14.5976) rotate(-110.672) scale(46.1113 46.114)">
<stop stop-color="#FF5C45"/>
<stop offset="0.29" stop-color="#FF5F47"/>
<stop offset="0.498" stop-color="#FF684E"/>
<stop offset="0.681" stop-color="#FF785B"/>
<stop offset="0.847" stop-color="#FF8E6C"/>
<stop offset="0.998" stop-color="#FFA981"/>
</radialGradient>
<linearGradient id="paint10_linear" x1="31.4487" y1="-0.49116" x2="35.7502" y2="27.9817" gradientUnits="userSpaceOnUse">
<stop stop-color="#FFA981" stop-opacity="0"/>
<stop offset="1" stop-color="#B82934"/>
</linearGradient>
<linearGradient id="paint11_linear" x1="22.0876" y1="12.4214" x2="49.1905" y2="13.1224" gradientUnits="userSpaceOnUse">
<stop stop-color="#FFA981" stop-opacity="0"/>
<stop offset="1" stop-color="#B82934"/>
</linearGradient>
<radialGradient id="paint12_radial" cx="0" cy="0" r="1" gradientUnits="userSpaceOnUse" gradientTransform="translate(54.2516 -0.986083) rotate(-98.5909) scale(47.2666)">
<stop stop-color="#FF5C45"/>
<stop offset="0.29" stop-color="#FF5F47"/>
<stop offset="0.498" stop-color="#FF684E"/>
<stop offset="0.681" stop-color="#FF785B"/>
<stop offset="0.847" stop-color="#FF8E6C"/>
<stop offset="0.998" stop-color="#FFA981"/>
</radialGradient>
<linearGradient id="paint13_linear" x1="31.5758" y1="41.5804" x2="54.976" y2="11.4873" gradientUnits="userSpaceOnUse">
<stop stop-color="#FFA981" stop-opacity="0"/>
<stop offset="1" stop-color="#B82934"/>
</linearGradient>
<radialGradient id="paint14_radial" cx="0" cy="0" r="1" gradientUnits="userSpaceOnUse" gradientTransform="translate(26.0676 1.48197) rotate(-89.9352) scale(49.0181 51.2112)">
<stop stop-color="#FF5C45"/>
<stop offset="0.29" stop-color="#FF5F47"/>
<stop offset="0.498" stop-color="#FF684E"/>
<stop offset="0.681" stop-color="#FF785B"/>
<stop offset="0.847" stop-color="#FF8E6C"/>
<stop offset="0.998" stop-color="#FFA981"/>
</radialGradient>
<radialGradient id="paint15_radial" cx="0" cy="0" r="1" gradientUnits="userSpaceOnUse" gradientTransform="translate(51.709 38.0004) rotate(-110.764) scale(43.9291 50.733)">
<stop stop-color="#FF5C45"/>
<stop offset="0.29" stop-color="#FF5F47"/>
<stop offset="0.498" stop-color="#FF684E"/>
<stop offset="0.681" stop-color="#FF785B"/>
<stop offset="0.847" stop-color="#FF8E6C"/>
<stop offset="0.998" stop-color="#FFA981"/>
</radialGradient>
<linearGradient id="paint16_linear" x1="52.1192" y1="-7.72756" x2="41.3704" y2="16.0907" gradientUnits="userSpaceOnUse">
<stop stop-color="#FFA981" stop-opacity="0"/>
<stop offset="1" stop-color="#B82934"/>
</linearGradient>
<linearGradient id="paint17_linear" x1="44.8588" y1="-11.0698" x2="47.9714" y2="15.8657" gradientUnits="userSpaceOnUse">
<stop stop-color="#FFA981" stop-opacity="0"/>
<stop offset="1" stop-color="#B82934"/>
</linearGradient>
<radialGradient id="paint18_radial" cx="0" cy="0" r="1" gradientUnits="userSpaceOnUse" gradientTransform="translate(23.6325 20.1437) rotate(-112.024) scale(44.3851)">
<stop stop-color="#FF5C45"/>
<stop offset="0.29" stop-color="#FF5F47"/>
<stop offset="0.498" stop-color="#FF684E"/>
<stop offset="0.681" stop-color="#FF785B"/>
<stop offset="0.847" stop-color="#FF8E6C"/>
<stop offset="0.998" stop-color="#FFA981"/>
</radialGradient>
<linearGradient id="paint19_linear" x1="66.8067" y1="35.7628" x2="48.7805" y2="15.5099" gradientUnits="userSpaceOnUse">
<stop stop-color="#FFA981" stop-opacity="0"/>
<stop offset="1" stop-color="#B82934"/>
</linearGradient>
<linearGradient id="paint20_linear" x1="64.673" y1="-11.2446" x2="45.1157" y2="21.5215" gradientUnits="userSpaceOnUse">
<stop stop-color="#FFA981" stop-opacity="0"/>
<stop offset="1" stop-color="#B82934"/>
</linearGradient>
<linearGradient id="paint21_linear" x1="69.6119" y1="-18.814" x2="35.1713" y2="27.8867" gradientUnits="userSpaceOnUse">
<stop stop-color="#FFA981" stop-opacity="0"/>
<stop offset="1" stop-color="#B82934"/>
</linearGradient>
<linearGradient id="paint22_linear" x1="36.3565" y1="29.6618" x2="30.1306" y2="20.9847" gradientUnits="userSpaceOnUse">
<stop stop-color="#FEFFB3"/>
<stop offset="1" stop-color="#FFCD77"/>
</linearGradient>
<radialGradient id="paint23_radial" cx="0" cy="0" r="1" gradientUnits="userSpaceOnUse" gradientTransform="translate(12.8149 39.6471) rotate(-98.5909) scale(7.66746)">
<stop stop-color="#FEFFB3"/>
<stop offset="0.193" stop-color="#FEF296"/>
<stop offset="0.609" stop-color="#FFD14B"/>
<stop offset="1" stop-color="#FFAF00"/>
</radialGradient>
<radialGradient id="paint24_radial" cx="0" cy="0" r="1" gradientUnits="userSpaceOnUse" gradientTransform="translate(20.0315 36.3352) rotate(-98.5909) scale(3.80727)">
<stop stop-color="#FEFFB3"/>
<stop offset="0.193" stop-color="#FEF296"/>
<stop offset="0.609" stop-color="#FFD14B"/>
<stop offset="1" stop-color="#FFAF00"/>
</radialGradient>
<radialGradient id="paint25_radial" cx="0" cy="0" r="1" gradientUnits="userSpaceOnUse" gradientTransform="translate(18.5535 31.4506) rotate(-98.5909) scale(3.80726)">
<stop stop-color="#FEFFB3"/>
<stop offset="0.193" stop-color="#FEF296"/>
<stop offset="0.609" stop-color="#FFD14B"/>
<stop offset="1" stop-color="#FFAF00"/>
</radialGradient>
<radialGradient id="paint26_radial" cx="0" cy="0" r="1" gradientUnits="userSpaceOnUse" gradientTransform="translate(24.3723 32.7185) rotate(-98.5909) scale(3.80727)">
<stop stop-color="#FEFFB3"/>
<stop offset="0.193" stop-color="#FEF296"/>
<stop offset="0.609" stop-color="#FFD14B"/>
<stop offset="1" stop-color="#FFAF00"/>
</radialGradient>
<radialGradient id="paint27_radial" cx="0" cy="0" r="1" gradientUnits="userSpaceOnUse" gradientTransform="translate(24.5084 27.7362) rotate(-98.5909) scale(3.80727)">
<stop stop-color="#FEFFB3"/>
<stop offset="0.193" stop-color="#FEF296"/>
<stop offset="0.609" stop-color="#FFD14B"/>
<stop offset="1" stop-color="#FFAF00"/>
</radialGradient>
<clipPath id="clip0">
<rect width="90" height="90" fill="white" transform="translate(13.4438 64.4343) rotate(-98.5909)"/>
</clipPath>
</defs>
</svg>
