<svg width="229" height="68" viewBox="0 0 229 68" fill="none" xmlns="http://www.w3.org/2000/svg">
<g filter="url(#filter0_d)">
<ellipse rx="67" ry="5.5" transform="matrix(1 0 0 -1 158 52.5)" fill="url(#paint0_linear)"/>
<ellipse rx="67" ry="5.5" transform="matrix(1 0 0 -1 158 52.5)" fill="url(#paint1_linear)" fill-opacity="0.5"/>
<ellipse rx="96.5" ry="5.5" transform="matrix(1 0 0 -1 116.5 50.5)" fill="url(#paint2_linear)"/>
<ellipse rx="96.5" ry="5.5" transform="matrix(1 0 0 -1 116.5 50.5)" fill="url(#paint3_linear)" fill-opacity="0.5"/>
<ellipse rx="67" ry="5.5" transform="matrix(1 0 0 -1 114 46.5)" fill="url(#paint4_linear)"/>
<ellipse rx="67" ry="5.5" transform="matrix(1 0 0 -1 114 46.5)" fill="url(#paint5_linear)" fill-opacity="0.5"/>
<ellipse rx="67" ry="5.5" transform="matrix(1 0 0 -1 71 52.5)" fill="url(#paint6_linear)"/>
<ellipse rx="67" ry="5.5" transform="matrix(1 0 0 -1 71 52.5)" fill="url(#paint7_linear)" fill-opacity="0.5"/>
<path d="M113.357 45.7865L113.213 45.6432C112.929 45.3585 112.929 44.8971 113.213 44.6125L127.155 30.671L128.329 31.845L114.388 45.7865C114.103 46.0711 113.641 46.0711 113.357 45.7865Z" fill="url(#paint8_linear)"/>
<path d="M124.997 32.8289V35.1769L128.329 31.845L127.155 30.671L124.997 32.8289Z" fill="url(#paint9_linear)"/>
<path d="M116.598 21.6117C116.768 22.0312 117.302 22.1553 117.643 21.8581C127.363 13.3909 138.507 10.4829 143.511 15.4572C136.212 8.17589 124.393 8.18095 117.102 15.4728C115.591 16.9834 115.598 19.133 116.593 21.5997C116.595 21.6037 116.596 21.6077 116.598 21.6117Z" fill="url(#paint10_linear)"/>
<path d="M143.543 15.4891C148.497 20.4735 145.633 31.5463 137.245 41.2388C136.95 41.5799 137.074 42.1109 137.491 42.2819C139.949 43.288 142.079 43.3458 143.527 41.8982C150.819 34.6064 150.824 22.7875 143.543 15.4891Z" fill="url(#paint11_linear)"/>
<path d="M130.367 36.9067C130.125 37.1567 129.73 37.1726 129.465 36.9464C128.158 35.8313 126.858 34.628 125.604 33.3962C124.337 32.1527 123.117 30.8775 121.996 29.6023C121.764 29.3384 121.778 28.9385 122.03 28.6937C131.857 19.1407 141.326 13.2715 143.527 15.4727C145.723 17.6687 139.884 27.1028 130.367 36.9067Z" fill="url(#paint12_linear)"/>
<path d="M143.527 15.4729C143.239 15.1847 142.943 14.9094 142.641 14.644L142.382 15.0267V42.6828C142.799 42.5013 143.183 42.2428 143.527 41.8981C150.824 34.601 150.824 22.77 143.527 15.4729Z" fill="url(#paint13_linear)"/>
<path d="M117.198 22.9108C118.125 24.7106 119.495 26.6395 121.124 28.5863C121.369 28.8798 121.814 28.9035 122.089 28.6369C131.895 19.1174 141.331 13.2759 143.527 15.4727C138.48 10.4255 127.146 13.4418 117.346 22.1186C117.122 22.3173 117.061 22.6443 117.198 22.9108Z" fill="url(#paint14_linear)"/>
<path d="M143.527 15.4727C145.718 17.6634 139.912 27.0572 130.437 36.8355C130.168 37.1127 130.195 37.5616 130.494 37.8055C132.443 39.3937 134.386 40.7516 136.196 41.6822C136.464 41.8195 136.791 41.7573 136.99 41.5318C145.583 31.7598 148.554 20.4995 143.527 15.4727Z" fill="url(#paint15_linear)"/>
<path d="M130.368 36.9061C130.125 37.157 129.73 37.1723 129.465 36.9462C128.157 35.831 126.858 34.6281 125.604 33.3962C124.336 32.1525 123.117 30.8777 121.996 29.6027C121.763 29.3387 121.778 28.9384 122.029 28.6937C122.046 28.6771 122.063 28.6619 122.079 28.6453C122.159 28.5679 122.239 28.4911 122.318 28.4144C122.395 28.3404 122.472 28.2665 122.548 28.1932C122.682 28.0646 122.816 27.9374 122.95 27.8095C122.969 27.7915 122.988 27.7736 123.006 27.7556C123.237 27.5378 123.465 27.3221 123.693 27.1092C123.979 26.8423 124.264 26.5783 124.549 26.3183C124.643 26.2319 124.737 26.1461 124.831 26.0605C124.907 25.992 124.982 25.9236 125.058 25.8552C125.268 25.6657 125.477 25.4791 125.685 25.2931C125.704 25.2765 125.723 25.2592 125.742 25.2426C125.859 25.1382 125.976 25.0345 126.093 24.9315C126.274 24.7732 126.453 24.6163 126.632 24.4614C126.707 24.3964 126.781 24.3322 126.855 24.2679C127.078 24.0756 127.3 23.8856 127.52 23.6995C127.642 23.5958 127.764 23.4935 127.885 23.3912C129.048 24.7241 130.319 26.0577 131.643 27.3567C132.95 28.6398 134.305 29.8912 135.667 31.0443C135.624 31.0968 135.58 31.1494 135.536 31.2012C135.398 31.3658 135.258 31.5317 135.117 31.6969C134.756 32.12 134.386 32.5466 134.008 32.9759C133.99 32.996 133.973 33.016 133.955 33.0353C133.69 33.3347 133.421 33.6354 133.149 33.9382C133.008 34.0944 132.865 34.2507 132.722 34.4076C132.471 34.6827 132.216 34.9587 131.958 35.2358C131.937 35.2579 131.916 35.2801 131.896 35.3022C131.683 35.5304 131.466 35.7592 131.249 35.9887C131.126 36.1173 131.003 36.2472 130.879 36.3772C130.771 36.4892 130.664 36.6004 130.556 36.7125C130.493 36.7769 130.43 36.8418 130.368 36.9061Z" fill="url(#paint16_linear)"/>
<path d="M123.564 17.4775C124.621 19.3656 126.128 21.3774 127.885 23.3912C127.764 23.4929 127.642 23.5959 127.52 23.6996C127.299 23.8855 127.078 24.0757 126.855 24.2679C126.781 24.3322 126.707 24.3965 126.632 24.4615C126.453 24.6164 126.273 24.7732 126.093 24.9316C125.976 25.0346 125.859 25.1382 125.742 25.2426C125.723 25.2592 125.704 25.2765 125.685 25.2931C125.476 25.4791 125.268 25.6658 125.058 25.8552C124.982 25.9236 124.907 25.9921 124.831 26.0605C124.737 26.1462 124.643 26.232 124.549 26.3184C124.264 26.5783 123.979 26.8424 123.693 27.1092C123.464 27.3222 123.236 27.5379 123.006 27.7556C122.988 27.7736 122.969 27.7915 122.95 27.8095C122.816 27.9374 122.682 28.0646 122.548 28.1932C122.472 28.2665 122.395 28.3405 122.318 28.4144C122.242 28.4884 122.166 28.5631 122.089 28.637C122.086 28.6398 122.083 28.6432 122.079 28.6453C121.803 28.9032 121.366 28.877 121.124 28.5859C119.494 26.6398 118.125 24.711 117.198 22.9107C117.061 22.6438 117.122 22.3176 117.346 22.1191C117.445 22.0313 117.544 21.9449 117.643 21.8586C117.697 21.8108 117.751 21.7639 117.807 21.7168C117.883 21.6497 117.96 21.5841 118.038 21.5184C118.097 21.4679 118.156 21.4167 118.216 21.367C119.006 20.6999 119.804 20.0707 120.607 19.4783C120.685 19.4202 120.764 19.3628 120.842 19.3061C120.852 19.2978 120.862 19.2902 120.873 19.2833C121.099 19.1188 121.324 18.9584 121.55 18.8008C121.558 18.7953 121.566 18.7903 121.573 18.7842C121.723 18.6797 121.873 18.5767 122.023 18.4758C122.028 18.4717 122.034 18.4669 122.041 18.4627C122.193 18.3597 122.345 18.2588 122.496 18.1585C122.578 18.1039 122.661 18.0507 122.742 17.9967C122.897 17.8972 123.051 17.7983 123.206 17.7002C123.208 17.6988 123.21 17.6982 123.21 17.6975C123.328 17.6234 123.446 17.5501 123.564 17.4775Z" fill="url(#paint17_linear)"/>
<path d="M136.99 41.5319C136.791 41.7573 136.463 41.8195 136.197 41.6819C134.386 40.7513 132.443 39.3936 130.494 37.8056C130.195 37.5615 130.168 37.1128 130.437 36.8356C130.476 36.7948 130.516 36.7533 130.556 36.7126C130.663 36.6005 130.771 36.4893 130.878 36.3772C131.002 36.2479 131.126 36.1187 131.249 35.9887C131.467 35.7598 131.682 35.531 131.895 35.3022C131.916 35.2802 131.937 35.258 131.958 35.2359C132.216 34.9593 132.471 34.6828 132.722 34.4076C132.865 34.2507 133.008 34.0945 133.149 33.9382C133.422 33.6361 133.691 33.3354 133.955 33.0354C133.973 33.016 133.99 32.996 134.007 32.9759C134.386 32.5473 134.756 32.1208 135.116 31.697C135.258 31.5317 135.398 31.3658 135.536 31.2012C135.58 31.1487 135.624 31.0968 135.667 31.045C137.679 32.7512 139.705 34.2431 141.605 35.3036C141.574 35.3548 141.542 35.406 141.511 35.4571C141.414 35.6127 141.317 35.7682 141.219 35.9231C141.217 35.9258 141.216 35.9272 141.215 35.9286C141.067 36.1602 140.917 36.3911 140.764 36.6227C140.761 36.6268 140.758 36.6317 140.755 36.6358C140.654 36.7865 140.553 36.9373 140.45 37.0887C140.285 37.3299 140.116 37.5719 139.943 37.8125C139.776 38.0475 139.605 38.2819 139.432 38.5162C139.374 38.5943 139.316 38.6725 139.256 38.7499C139.15 38.8923 139.041 39.034 138.932 39.1765C138.794 39.3555 138.655 39.5339 138.512 39.7122C138.349 39.9168 138.183 40.1215 138.016 40.3261C137.764 40.6317 137.508 40.9352 137.246 41.2387C137.161 41.3362 137.076 41.4338 136.99 41.5319Z" fill="url(#paint18_linear)"/>
<path d="M123.563 17.4768C123.447 17.5494 123.328 17.6233 123.21 17.6973C123.209 17.698 123.207 17.6987 123.206 17.7001C123.052 17.7975 122.898 17.8964 122.742 17.9966C122.66 18.0505 122.578 18.1037 122.496 18.1584C122.344 18.2579 122.192 18.3595 122.041 18.4625C122.034 18.4667 122.028 18.4715 122.022 18.4757C121.872 18.5773 121.722 18.6803 121.573 18.784C121.565 18.7902 121.558 18.7951 121.55 18.8006C121.324 18.9582 121.099 19.1186 120.873 19.2831C120.862 19.29 120.852 19.2977 120.842 19.3059C120.763 19.3626 120.685 19.42 120.606 19.4781C119.804 20.0706 119.006 20.6997 118.216 21.3669C118.156 21.4166 118.097 21.4671 118.038 21.5182C117.961 21.5833 117.883 21.6496 117.806 21.7167C117.751 21.7637 117.697 21.8107 117.643 21.8584C117.301 22.1556 116.767 22.0313 116.598 21.6116C116.597 21.6075 116.595 21.604 116.593 21.5998C115.598 19.1331 115.591 16.9831 117.101 15.4725C118.563 14.0103 120.207 12.8413 121.96 11.966C121.807 13.5584 122.424 15.4457 123.563 17.4768Z" fill="url(#paint19_linear)"/>
<path d="M143.527 41.8983C142.08 43.346 139.949 43.2879 137.491 42.282C137.074 42.1113 136.95 41.5803 137.246 41.2388C137.508 40.9353 137.764 40.6318 138.016 40.3262C138.184 40.1223 138.35 39.9176 138.512 39.7123C138.655 39.5339 138.794 39.3555 138.932 39.1765C139.042 39.0348 139.15 38.8924 139.256 38.7499C139.316 38.6725 139.374 38.5943 139.432 38.5163C139.606 38.2826 139.777 38.0483 139.943 37.8125C140.116 37.572 140.285 37.33 140.45 37.0887C140.553 36.9374 140.655 36.7873 140.755 36.6359C140.758 36.6318 140.761 36.6269 140.764 36.6228C140.917 36.3919 141.068 36.161 141.215 35.9286C141.216 35.9272 141.218 35.9259 141.219 35.9232C141.318 35.7676 141.415 35.6128 141.511 35.4572C141.543 35.406 141.574 35.3548 141.605 35.3037C143.625 36.4327 145.504 37.0721 147.072 36.9629C146.192 38.7445 145.011 40.4147 143.527 41.8983Z" fill="url(#paint20_linear)"/>
<path d="M143.544 15.4896C143.539 15.4853 143.535 15.4809 143.531 15.4766C144.445 16.3977 143.956 18.5822 142.382 21.5285V33.9746C146.567 26.4853 147.283 19.2527 143.544 15.4896Z" fill="url(#paint21_linear)"/>
<path d="M143.247 15.7534C143.524 16.031 143.767 16.3226 143.973 16.6179C144.019 16.5745 144.063 16.528 144.102 16.4757L146.141 13.7524C146.331 13.4983 146.306 13.1429 146.082 12.9185C145.857 12.694 145.502 12.6686 145.248 12.8589L142.524 14.898C142.472 14.9372 142.425 14.981 142.382 15.0267C142.677 15.2329 142.969 15.4758 143.247 15.7534Z" fill="url(#paint22_linear)"/>
<g clip-path="url(#clip0)">
<path d="M183.634 29.5517C183.634 29.5517 182.894 24.5642 190.321 15.6162C190.321 15.6161 186.743 24.6169 183.634 29.5517Z" fill="url(#paint23_linear)"/>
<path d="M183.634 29.5517C186.743 24.6169 190.321 15.6161 190.321 15.6161C190.321 15.6161 184.383 25.4484 183.634 29.5517Z" fill="url(#paint24_linear)"/>
<path d="M197.583 25.5578C197.583 25.5578 200.155 28.9988 210.051 29.0706C210.051 29.0706 202.445 26.2854 197.583 25.5578Z" fill="url(#paint25_linear)"/>
<path d="M197.583 25.5578C202.445 26.2854 210.051 29.0706 210.051 29.0706C210.051 29.0706 200.519 27.442 197.583 25.5578Z" fill="url(#paint26_linear)"/>
<path d="M183.84 30.2941C183.84 30.2941 184.836 33.9872 192.6 37.2306C192.6 37.2307 187.448 32.4643 183.84 30.2941Z" fill="url(#paint27_linear)"/>
<path d="M183.84 30.2941C187.448 32.4642 192.6 37.2307 192.6 37.2307C192.6 37.2307 185.587 32.8077 183.84 30.2941Z" fill="url(#paint28_linear)"/>
<path d="M200.313 25.3935C200.313 25.3935 204.352 23.6373 214.641 27.5929C214.641 27.5929 205.644 26.7738 200.313 25.3935Z" fill="url(#paint29_linear)"/>
<path d="M200.313 25.3935C205.644 26.7738 214.641 27.5929 214.641 27.5929C214.641 27.5929 204.108 25.0513 200.313 25.3935Z" fill="url(#paint30_linear)"/>
<path d="M186.2 28.0415C186.2 28.0415 188.076 17.2894 196.501 14.5448C196.501 14.5448 190.877 17.8938 186.2 28.0415Z" fill="url(#paint31_linear)"/>
<path d="M196.501 14.5448C196.494 14.5471 196.487 14.5497 196.48 14.552C196.081 14.6928 189.917 17.0256 186.201 28.0415C190.877 17.8938 196.501 14.5448 196.501 14.5448Z" fill="url(#paint32_linear)"/>
<path d="M188.469 27.0129C188.469 27.0129 193.406 18.7374 199.959 15.5104C199.959 15.5104 191.101 16.6105 188.469 27.0129Z" fill="url(#paint33_linear)"/>
<path d="M199.959 15.5104C199.959 15.5104 192.793 17.1072 188.469 27.0129C188.469 27.0129 193.406 18.7374 199.959 15.5104Z" fill="url(#paint34_linear)"/>
<path d="M190.821 26.2015C190.821 26.2015 194.042 16.9115 203.107 17.56C203.107 17.5601 196.382 18.6839 190.821 26.2015Z" fill="url(#paint35_linear)"/>
<path d="M203.107 17.5601C195.429 17.7934 190.821 26.2015 190.821 26.2015C196.382 18.6839 203.107 17.5601 203.107 17.5601Z" fill="url(#paint36_linear)"/>
<path d="M193.176 25.5709C193.176 25.5709 198.497 20.2699 205.633 19.1645C205.633 19.1644 197.577 17.8756 193.176 25.5709Z" fill="url(#paint37_linear)"/>
<path d="M205.633 19.1643C197.752 19.2519 193.176 25.5708 193.176 25.5708C193.176 25.5708 198.497 20.2699 205.633 19.1643Z" fill="url(#paint38_linear)"/>
<path d="M195.608 25.2444C195.608 25.2444 202.236 18.1326 208.914 21.8588C208.914 21.8588 201.882 20.2232 195.608 25.2444Z" fill="url(#paint39_linear)"/>
<path d="M208.914 21.8588C201.27 19.3146 195.608 25.2444 195.608 25.2444C201.882 20.2232 208.914 21.8588 208.914 21.8588Z" fill="url(#paint40_linear)"/>
<path d="M198.046 25.1334C198.046 25.1334 202.655 20.3369 209.77 24.3969C209.77 24.3969 202.59 22.8277 198.046 25.1334Z" fill="url(#paint41_linear)"/>
<path d="M209.769 24.3969C203.001 21.7003 198.046 25.1335 198.046 25.1335C202.59 22.8278 209.769 24.3969 209.769 24.3969Z" fill="url(#paint42_linear)"/>
<path d="M186.279 28.8393C186.279 28.8393 191.361 34.7645 197.546 35.5874C197.546 35.5874 189.421 37.4362 186.279 28.8393Z" fill="url(#paint43_linear)"/>
<path d="M197.546 35.5874C197.546 35.5874 190.922 36.4414 186.279 28.8393C186.279 28.8393 191.361 34.7645 197.546 35.5874Z" fill="url(#paint44_linear)"/>
<path d="M188.386 27.7313C188.386 27.7313 191.838 36.5279 200.818 34.6278C200.818 34.6278 194.112 34.4406 188.386 27.7313Z" fill="url(#paint45_linear)"/>
<path d="M200.818 34.6278C193.19 35.4585 188.386 27.7313 188.386 27.7313C194.112 34.4406 200.818 34.6278 200.818 34.6278Z" fill="url(#paint46_linear)"/>
<path d="M193.123 26.1606C193.123 26.1606 198.206 31.1846 205.3 31.9114C205.3 31.9114 197.174 33.6309 193.123 26.1606Z" fill="url(#paint47_linear)"/>
<path d="M205.3 31.9114C197.413 32.2435 193.123 26.1606 193.123 26.1606C193.123 26.1606 198.206 31.1846 205.3 31.9114Z" fill="url(#paint48_linear)"/>
<path d="M194.951 25.7498C194.951 25.7498 201.263 33.2378 208.538 29.7251C208.538 29.7252 201.07 31.1011 194.951 25.7498Z" fill="url(#paint49_linear)"/>
<path d="M208.538 29.7252C200.356 31.9988 194.951 25.7499 194.951 25.7499C201.07 31.1011 208.538 29.7252 208.538 29.7252Z" fill="url(#paint50_linear)"/>
<path d="M190.746 26.8155C190.746 26.8155 192.528 33.4329 202.813 33.8498C202.813 33.8498 194.095 31.2684 190.746 26.8155Z" fill="url(#paint51_linear)"/>
<path d="M202.813 33.8498C193.794 32.4564 190.746 26.8155 190.746 26.8155C194.095 31.2684 202.813 33.8498 202.813 33.8498Z" fill="url(#paint52_linear)"/>
<path d="M200.313 25.3935C200.313 25.3935 190.44 22.9942 178.448 33.1736C178.448 33.1736 180.364 32.6307 183.266 30.6221C188.213 27.1977 194.212 25.2196 200.313 25.3935Z" fill="url(#paint53_linear)"/>
<path d="M200.313 25.3935C189.085 24.2826 178.636 33.0158 178.451 33.1713C178.45 33.172 178.449 33.1728 178.448 33.1735C178.448 33.1735 180.364 32.6307 183.266 30.622C188.213 27.1977 194.212 25.2196 200.313 25.3935Z" fill="url(#paint54_linear)"/>
<path d="M192.769 38.4974C192.769 38.4974 200.571 40.2322 204.239 36.379C204.239 36.379 199.496 39.2596 192.769 38.4974Z" fill="url(#paint55_linear)"/>
<path d="M204.239 36.379C199.378 39.9044 192.769 38.4974 192.769 38.4974C199.496 39.2596 204.239 36.379 204.239 36.379Z" fill="url(#paint56_linear)"/>
<path d="M194.206 38.6545C194.206 38.6545 202.817 40.2853 206.703 35.9353C206.703 35.9353 201.605 39.2568 194.206 38.6545Z" fill="url(#paint57_linear)"/>
<path d="M206.703 35.9353C201.499 39.9676 194.206 38.6545 194.206 38.6545C201.605 39.2568 206.703 35.9353 206.703 35.9353Z" fill="url(#paint58_linear)"/>
<path d="M208.719 35.6688C208.179 35.9596 207.636 36.2434 207.079 36.4965C206.94 36.5601 206.802 36.6262 206.662 36.6883L206.24 36.8689L206.03 36.959L205.816 37.043L205.39 37.2109C204.816 37.4208 204.24 37.6238 203.653 37.7898C203.362 37.8802 203.065 37.951 202.771 38.0308L202.326 38.1354L202.103 38.1873L201.88 38.233C200.688 38.4866 199.478 38.6407 198.265 38.705C197.658 38.7389 197.051 38.7453 196.444 38.7347C195.837 38.7237 195.231 38.6839 194.627 38.6284C193.419 38.5122 192.222 38.3009 191.045 38.0152C189.867 37.7287 188.704 37.3899 187.554 37.0033C186.405 36.6158 185.271 36.1762 184.158 35.682C183.602 35.4338 183.048 35.1761 182.503 34.9016C181.955 34.6299 181.414 34.3426 180.883 34.0367L180.839 34.0969C181.311 34.499 181.817 34.8536 182.332 35.1968C182.591 35.366 182.854 35.5294 183.119 35.6904C183.384 35.8502 183.653 36.0023 183.924 36.1521C185.011 36.7482 186.141 37.2688 187.304 37.7061C188.467 38.1435 189.666 38.4895 190.885 38.7365C191.495 38.8579 192.109 38.9577 192.725 39.0395C193.341 39.1226 193.959 39.1859 194.579 39.2234C195.199 39.2633 195.819 39.2869 196.44 39.2813C197.061 39.2753 197.681 39.2515 198.299 39.2001C199.535 39.093 200.762 38.8947 201.963 38.5966L202.188 38.5415L202.412 38.48L202.859 38.3564C203.154 38.2639 203.452 38.1805 203.743 38.0775C204.331 37.8864 204.905 37.6586 205.475 37.4244L205.899 37.2384L206.11 37.1454L206.319 37.0463L206.737 36.848C206.875 36.78 207.011 36.7084 207.148 36.6385C207.697 36.3588 208.229 36.049 208.756 35.7333L208.719 35.6688Z" fill="url(#paint59_linear)"/>
<path d="M180.883 34.0367C181.414 34.3426 181.955 34.6299 182.503 34.9016C183.048 35.1761 183.602 35.4338 184.158 35.682C185.271 36.1763 186.405 36.6159 187.554 37.0033C188.704 37.39 189.867 37.7287 191.045 38.0152C192.222 38.301 193.419 38.5123 194.627 38.6284C195.231 38.684 195.837 38.7237 196.444 38.7348C197.051 38.7453 197.659 38.7389 198.265 38.7051C199.478 38.6408 200.688 38.4867 201.88 38.2331L202.103 38.1874L202.326 38.1355L202.771 38.0309C203.065 37.9511 203.362 37.8803 203.653 37.7898C204.24 37.6239 204.816 37.4208 205.39 37.2109L205.816 37.043L206.03 36.959L206.24 36.8689L206.662 36.6883C206.802 36.6263 206.94 36.5602 207.079 36.4966C207.636 36.2435 208.179 35.9596 208.719 35.6688C208.719 35.6688 196.31 44.2832 180.883 34.0367Z" fill="url(#paint60_linear)"/>
<path d="M190.449 38.6712C190.449 38.6712 197.34 41.5157 203.765 40.3719C203.765 40.3719 197.703 43.7583 190.449 38.6712Z" fill="url(#paint61_linear)"/>
<path d="M203.765 40.3719C197.201 42.5712 190.449 38.6712 190.449 38.6712C190.449 38.6712 197.34 41.5157 203.765 40.3719Z" fill="url(#paint62_linear)"/>
<path d="M193.165 39.0858C193.165 39.0858 200.472 40.569 206.562 38.2252C206.562 38.2253 201.254 42.7018 193.165 39.0858Z" fill="url(#paint63_linear)"/>
<path d="M206.562 38.2253C200.536 41.6316 193.165 39.0859 193.165 39.0859C193.165 39.0859 200.472 40.569 206.562 38.2253Z" fill="url(#paint64_linear)"/>
<path d="M196.542 39.2586C196.542 39.2586 203.696 38.8959 208.623 36.2859C208.623 36.2859 205.034 40.1293 196.542 39.2586Z" fill="url(#paint65_linear)"/>
<path d="M208.623 36.2859C204.064 39.5691 196.542 39.2586 196.542 39.2586C196.542 39.2586 203.697 38.8959 208.623 36.2859Z" fill="url(#paint66_linear)"/>
</g>
<path d="M48.78 27.112C48.456 31.144 47.34 35.14 45.396 38.704C43.776 41.62 41.364 44.428 38.556 46.336C37.152 47.308 35.604 48.136 33.948 48.676C33.12 48.928 32.184 49.216 31.32 48.964C30.636 48.784 30.096 48.172 29.808 47.452C29.052 45.616 29.952 43.6 30.96 42.052C31.932 40.576 33.084 39.208 34.416 37.984C34.488 37.948 34.56 37.876 34.596 37.804C34.704 38.632 34.812 39.46 34.884 40.324C34.884 41.908 34.92 43.528 34.956 45.148C34.956 45.364 34.956 45.544 34.992 45.796C35.028 46.372 35.712 46.732 36.216 46.804C36.684 46.876 37.404 46.768 37.368 46.156C37.26 42.7 37.224 39.244 37.26 35.788C37.728 35.464 38.232 35.176 38.736 34.888C40.32 34.06 42.012 33.448 43.776 33.088C44.604 32.908 45.432 32.764 46.296 32.692C46.98 32.62 46.476 31.9 45.972 31.972C44.1 32.116 42.3 32.512 40.536 33.196C39.384 33.664 38.304 34.168 37.26 34.744C37.296 29.992 37.44 25.24 37.62 20.524C37.728 18.328 37.836 16.168 37.944 14.008C38.988 13.108 40.248 12.424 41.616 12.172C41.976 12.1 42.336 12.1 42.696 12.1C42.876 12.1 42.984 12.1 43.164 12.136C43.236 12.136 43.344 12.172 43.452 12.172C43.488 12.172 43.704 12.244 43.704 12.244C43.884 12.28 44.064 12.352 44.244 12.388C44.28 12.424 44.316 12.424 44.352 12.424C44.208 12.388 44.244 12.388 44.496 12.496C44.532 12.532 44.568 12.532 44.568 12.532C44.604 12.532 44.604 12.568 44.604 12.568C44.748 12.64 44.892 12.712 45 12.784C45.108 12.82 45.18 12.856 45.252 12.928C45.252 12.928 45.252 12.928 45.288 12.928C45.324 12.964 45.36 13 45.396 13.036C46.008 13.504 46.332 13.828 46.8 14.548C46.836 14.584 46.872 14.656 46.908 14.728L46.98 14.872C47.052 14.944 47.088 15.016 47.124 15.088C47.088 15.016 47.088 15.016 47.124 15.124C47.196 15.196 47.232 15.268 47.268 15.376C47.448 15.736 47.628 16.096 47.772 16.492C48.348 17.968 48.636 19.408 48.78 21.064C48.96 23.08 48.924 25.096 48.78 27.112ZM34.416 25.528C34.272 23.44 34.308 21.316 34.812 19.3C35.1 18.112 35.532 17.032 36.18 16.024C35.784 19.264 35.496 22.504 35.28 25.744C35.172 27.652 35.1 29.56 35.028 31.468C34.776 29.488 34.524 27.508 34.416 25.528ZM51.48 24.664C51.48 22.756 51.336 20.848 50.904 19.012C50.472 17.284 49.86 15.556 48.744 14.152C47.592 12.676 46.044 11.524 44.208 11.092C41.868 10.552 39.492 11.344 37.62 12.784C37.512 12.712 37.404 12.676 37.332 12.676C37.116 12.604 36.612 12.604 36.576 12.892C36.54 13.216 36.504 13.504 36.468 13.792C36 14.296 35.568 14.836 35.208 15.376C32.868 19.012 33.084 23.656 33.516 27.76C33.84 30.712 34.164 33.628 34.488 36.544C33.3 37.444 32.256 38.488 31.356 39.604C30.096 41.116 28.8 42.916 28.44 44.896C28.08 46.66 28.62 48.82 30.276 49.756C32.256 50.872 34.704 50.188 36.684 49.432C40.248 48.1 43.524 45.688 45.9 42.7C48.492 39.388 50.112 35.464 50.904 31.324C51.3 29.128 51.516 26.896 51.48 24.664ZM59.3978 47.452C61.3418 47.452 63.6098 46.66 65.4098 45.688C66.1658 45.328 66.9938 44.896 67.6058 44.284C67.6778 44.212 67.6778 44.176 67.6778 44.104C67.6778 43.744 67.2458 43.528 66.9218 43.528C66.0218 43.708 65.5538 44.104 64.6898 44.5C62.9258 45.292 60.9458 46.048 59.1098 46.048C58.7138 46.048 58.7858 46.048 58.2098 45.94L57.7778 45.724C57.7778 45.688 57.7418 45.652 57.7058 45.652L57.1298 44.86C57.1298 44.86 57.0218 44.716 57.0218 44.68C56.5538 43.852 56.3378 42.952 56.3378 42.016C56.4458 40.468 56.4818 39.784 57.0578 38.164C59.2898 37.948 61.4858 36.436 62.7818 34.672C63.2138 34.096 63.6458 33.448 63.6818 32.728C63.6818 32.116 63.2498 31.54 62.7818 31.18C62.2058 30.712 61.6298 30.46 60.8738 30.46C59.7218 30.46 58.7858 31.108 57.8857 31.792C55.2578 33.88 53.6738 37.984 53.6738 41.476C53.6738 42.34 53.7817 43.204 54.1058 44.032C54.9697 46.3 57.1658 47.452 59.3978 47.452ZM57.3457 37.372C58.1378 35.176 59.6498 33.196 61.6298 32.296C61.9538 32.116 61.7738 32.188 62.1698 32.08C62.3498 32.08 62.4218 32.404 62.4218 32.548C62.4218 32.98 62.0977 33.484 61.9178 33.772C60.8738 35.644 59.1818 36.652 57.3457 37.372ZM72.7616 43.276C73.1576 43.276 73.5536 43.132 73.7336 42.772C74.9936 39.964 76.1456 37.156 77.3336 34.348C77.6216 35.5 77.9456 36.616 78.3776 37.732C79.1696 39.928 80.2136 43.132 83.0216 43.132C83.2736 43.132 83.5976 43.096 83.8856 42.988C85.1456 42.412 85.7216 41.116 86.1896 39.82C86.8736 37.768 87.2336 35.572 87.2336 33.412C87.1616 31.504 87.0896 30.28 86.8376 28.444C86.6576 27.004 86.4776 25.528 86.0096 24.16C85.8656 23.692 85.1096 23.332 84.4976 23.332C84.0656 23.332 83.6696 23.548 83.6696 24.016C83.6696 25.096 83.8856 26.212 84.0296 27.292C84.4616 29.956 84.6416 32.512 84.6416 35.212C84.6416 35.932 84.6416 36.652 84.6056 37.372C84.5696 38.344 84.4616 39.352 84.1736 40.288C83.9576 40.9 83.4896 41.692 82.8416 41.836C82.8056 41.836 82.7336 41.836 82.6976 41.872C82.5896 41.8 82.5896 41.872 82.4456 41.728C81.4016 40.396 81.2936 39.892 80.6096 38.092C79.7096 35.824 79.0256 33.448 78.6656 31.036C78.5936 30.532 77.9096 30.1 77.3336 30.1C77.0456 30.1 76.7576 30.244 76.6136 30.532L72.4736 38.92C72.8696 34.78 72.6896 36.688 73.1936 32.62C73.4096 31.144 73.5536 30.028 73.5536 28.624C73.5536 28.48 73.3016 28.336 73.0856 28.336C73.0136 28.336 72.9416 28.336 72.9056 28.408C72.6176 28.876 72.2936 29.308 72.0416 29.812C71.7896 30.316 71.6096 30.82 71.4296 31.36C70.6736 33.808 69.8456 37.048 69.8456 39.604C69.8456 41.188 70.5656 42.52 72.1136 43.168C72.2936 43.24 72.5456 43.276 72.7616 43.276ZM95.1165 47.452C97.0605 47.452 99.3285 46.66 101.129 45.688C101.885 45.328 102.713 44.896 103.325 44.284C103.397 44.212 103.397 44.176 103.397 44.104C103.397 43.744 102.965 43.528 102.641 43.528C101.741 43.708 101.273 44.104 100.409 44.5C98.6445 45.292 96.6645 46.048 94.8285 46.048C94.4325 46.048 94.5045 46.048 93.9285 45.94L93.4965 45.724C93.4965 45.688 93.4605 45.652 93.4245 45.652L92.8485 44.86C92.8485 44.86 92.7405 44.716 92.7405 44.68C92.2725 43.852 92.0565 42.952 92.0565 42.016C92.1645 40.468 92.2005 39.784 92.7765 38.164C95.0085 37.948 97.2045 36.436 98.5005 34.672C98.9325 34.096 99.3645 33.448 99.4005 32.728C99.4005 32.116 98.9685 31.54 98.5005 31.18C97.9245 30.712 97.3485 30.46 96.5925 30.46C95.4405 30.46 94.5045 31.108 93.6045 31.792C90.9765 33.88 89.3925 37.984 89.3925 41.476C89.3925 42.34 89.5005 43.204 89.8245 44.032C90.6885 46.3 92.8845 47.452 95.1165 47.452ZM93.0645 37.372C93.8565 35.176 95.3685 33.196 97.3485 32.296C97.6725 32.116 97.4925 32.188 97.8885 32.08C98.0685 32.08 98.1405 32.404 98.1405 32.548C98.1405 32.98 97.8165 33.484 97.6365 33.772C96.5925 35.644 94.9005 36.652 93.0645 37.372ZM154.916 44.356C155.78 44.356 156.356 43.888 156.86 43.24C158.588 41.008 159.344 38.56 159.344 35.824C159.344 33.628 158.984 30.928 157.616 29.2C156.572 27.904 155.276 27.4 153.692 27.364C152.504 27.364 151.388 27.832 150.776 28.912L150.74 29.056C150.74 29.344 151.244 29.632 151.604 29.632C151.784 29.632 151.928 29.56 152 29.452C152.504 28.696 153.332 28.3 154.16 28.3C156.464 28.3 157.652 30.892 157.652 33.34C157.652 36.364 156.176 39.712 154.556 41.8C154.52 41.836 154.484 41.872 154.484 41.908C154.412 41.728 154.376 41.512 154.34 41.26C154.088 39.964 154.016 39.172 154.016 37.804C154.016 35.896 154.232 33.7 155.024 31.936C155.096 31.684 155.204 31.396 155.384 31.252C155.528 31.108 155.564 31.144 155.672 31.036L155.852 31.072C156.14 31.072 156.356 30.856 156.356 30.64C156.356 30.172 155.348 29.776 154.664 29.776C152.108 29.776 151.424 33.952 151.316 37.336C151.316 38.596 151.46 39.856 151.676 41.08C151.856 41.836 152.036 42.52 152.468 43.132C152.972 43.852 153.908 44.356 154.808 44.356H154.916ZM171.434 46.012C172.01 46.012 172.262 45.4 172.262 44.86C172.226 43.492 172.298 43.42 172.118 42.052C171.686 37.156 171.758 37.66 171.146 33.16C171.074 32.548 170.858 31.936 170.786 31.324C170.678 30.784 170.246 30.712 169.742 30.64C169.49 30.64 169.238 30.712 169.166 30.928C168.95 31.684 168.554 32.368 168.194 33.052C166.862 35.608 165.962 37.156 164.198 39.892C164.198 35.212 164.27 36.724 164.45 31.828C164.45 31.576 164.378 31.288 164.306 31.036C164.198 30.532 163.838 30.46 163.334 30.352C163.118 30.352 162.938 30.424 162.866 30.532C162.578 30.928 162.362 31.288 162.254 31.756C161.57 34.456 161.498 35.5 161.498 38.452C161.498 39.496 161.534 40.54 161.642 41.584C161.714 42.772 162.686 43.6 163.874 43.6L164.378 43.528C165.278 43.312 165.71 42.448 166.178 41.728C167.51 39.568 168.122 38.344 169.166 35.86C169.346 39.784 169.382 40.72 169.814 44.248C169.886 45.112 170.426 46.012 171.434 46.012ZM176.163 44.068C176.379 44.068 176.595 43.996 176.739 43.888C178.503 42.664 178.611 40.468 179.367 38.452C179.763 37.372 180.195 36.328 180.699 35.32C181.203 34.24 181.851 32.656 182.535 31.792C182.607 31.756 182.679 31.684 182.715 31.612C182.823 31.612 182.823 31.684 182.895 31.684C182.895 31.72 182.967 31.756 183.003 31.792C183.003 31.792 183.615 32.224 184.011 32.224C184.407 32.224 184.659 31.9 184.659 31.54C184.659 30.532 183.183 30.028 182.283 30.028C181.311 30.1 180.915 30.28 180.195 30.892C179.763 31.288 179.475 31.828 179.187 32.332C178.503 33.448 177.927 34.636 177.423 35.824C177.423 35.392 177.423 34.96 177.459 34.528C177.459 33.232 177.423 33.556 177.423 32.368C177.423 32.044 177.315 31.792 177.243 31.468C177.171 30.856 176.631 30.748 175.983 30.64C175.443 30.64 175.191 31.216 175.119 31.792C175.011 32.764 174.975 32.98 174.903 33.916C174.687 37.084 174.543 40.18 174.435 42.88C174.435 43.636 175.479 44.068 176.163 44.068Z" fill="black"/>
<path d="M35.9284 14.2453C35.9284 14.2453 35.0922 17.2253 31 15.4346C31 15.4346 33.1087 11.2631 35.9284 14.2453Z" fill="url(#paint67_linear)"/>
<path d="M31 15.4346C32.3447 14.8768 35.9284 14.2453 35.9284 14.2453C33.1087 11.2631 31 15.4346 31 15.4346Z" fill="url(#paint68_linear)"/>
<path d="M37.7284 13.8635C37.7284 13.8635 40.0999 15.8523 36.7835 18.8446C36.7835 18.8446 33.8498 15.2058 37.7284 13.8635Z" fill="url(#paint69_linear)"/>
<path d="M36.7835 18.8446C36.8287 17.3896 37.7284 13.8636 37.7284 13.8636C33.8498 15.2058 36.7835 18.8446 36.7835 18.8446Z" fill="url(#paint70_linear)"/>
<path d="M39.1431 14.1124C39.1431 14.1124 39.8168 17.1333 43.9999 15.5667C43.9999 15.5667 42.1202 11.2872 39.1431 14.1124Z" fill="url(#paint71_linear)"/>
<path d="M43.9999 15.5667C42.6874 14.937 39.1431 14.1123 39.1431 14.1123C42.1201 11.2872 43.9999 15.5667 43.9999 15.5667Z" fill="url(#paint72_linear)"/>
<path d="M35.9285 14.2453C35.2052 13.4804 34.5287 13.1862 33.9226 13.1715L33.2888 14.6612L34.4415 15.814C34.5446 15.7738 34.6412 15.7287 34.7313 15.6797C35.6688 15.1701 35.9285 14.2453 35.9285 14.2453Z" fill="url(#paint73_linear)"/>
<path d="M37.7284 13.8635C36.3035 14.3566 35.7981 15.1597 35.7288 15.9785L37.6658 17.9155C39.6173 15.4477 37.7284 13.8635 37.7284 13.8635Z" fill="url(#paint74_linear)"/>
<path d="M39.1431 14.1124C39.1431 14.1124 39.8168 17.1333 43.9999 15.5667C43.9999 15.5667 42.1202 11.2872 39.1431 14.1124Z" fill="url(#paint75_linear)"/>
<path d="M36.8003 10.8633C36.8003 10.8633 35.3287 8.10012 36.2573 7.94468C37.186 7.78924 36.3972 7.09102 37.4175 7.26279C38.4378 7.43455 37.9976 6.92184 39.1589 7.10679C40.3202 7.29173 41.4339 9.09096 40.0586 10.1224C39.1104 10.8335 37.6323 12.8529 36.8003 10.8633Z" fill="url(#paint76_radial)"/>
<path d="M36.2728 8.33767C36.2551 8.31173 36.2327 8.28928 36.2067 8.27158L36.1993 8.26417L36.1996 8.26716C36.1608 8.24254 36.115 8.22809 36.0656 8.22809C36.0306 8.22809 35.9976 8.23573 35.9674 8.24871C35.9671 8.25033 35.9667 8.25198 35.9664 8.25361C35.9575 8.29761 35.9524 8.34522 35.9508 8.39605C35.9508 8.398 35.9506 8.39993 35.9506 8.40189C35.9499 8.42756 35.9501 8.45399 35.9511 8.48116C35.9512 8.48288 35.9512 8.48464 35.9513 8.48636C35.9536 8.54189 35.9591 8.60031 35.9677 8.6611C35.9679 8.6628 35.9682 8.66453 35.9684 8.66625C35.9817 8.75987 36.0018 8.85889 36.0272 8.96106C36.2366 9.80469 36.8003 10.8633 36.8003 10.8633C37.3589 12.1991 38.2087 11.7279 38.9938 11.0587L36.2728 8.33767ZM36.2259 8.67151C36.2326 8.66603 36.2388 8.66013 36.2448 8.65402L36.2515 8.71125C36.243 8.69812 36.2344 8.68456 36.2259 8.67151Z" fill="url(#paint77_linear)"/>
<path d="M37.6794 11.6617C37.809 11.6593 37.9329 11.6086 38.0326 11.5257C38.2662 11.3314 38.9037 10.7634 39.2096 10.1134C39.5884 9.3088 38.8331 10.4901 38.375 10.7776C37.917 11.065 38.6078 10.1718 38.5602 9.33081C38.5126 8.4898 38.0084 10.5556 37.6901 10.7809C37.3718 11.0062 37.6643 10.2148 37.4763 9.82964C37.2882 9.44451 37.1526 10.5511 37.1939 10.7756C37.235 11 36.7728 10.2429 36.6035 10.2011C36.4342 10.1592 37.0355 11.2478 37.3144 11.5171C37.4339 11.6326 37.5667 11.6638 37.6794 11.6617Z" fill="url(#paint78_linear)"/>
<path d="M37.1276 11.3796C37.1276 11.3796 37.0122 8.8781 35.1649 8.60871C33.3176 8.33931 34.1643 9.22448 33.7025 9.30144C33.2406 9.37842 32.2785 9.22445 32.2015 10.6099C32.1246 11.9954 37.2815 13.4578 37.1276 11.3796Z" fill="url(#paint79_radial)"/>
<path d="M36.4521 12.3187C36.7942 12.21 36.9734 11.8337 36.8546 11.495C36.7018 11.0595 36.46 10.4157 36.2703 10.1105C35.9695 9.62668 36.231 10.5421 36.2572 10.8429C36.2833 11.1437 35.7341 10.2151 35.211 9.90128C34.6879 9.58743 34.8187 10.0713 35.211 10.3067C35.6033 10.5421 35.211 10.5813 34.6356 10.359C34.0601 10.1367 34.1517 10.5028 35.211 10.9867C36.2703 11.4706 36.3487 11.9937 36.0087 11.7975C35.6687 11.6014 35.1064 11.4967 34.8448 11.5621C34.6998 11.5984 35.3994 12.0971 36.0403 12.3157C36.1681 12.3593 36.3065 12.3634 36.4356 12.3239C36.4411 12.3222 36.4466 12.3205 36.4521 12.3187Z" fill="url(#paint80_linear)"/>
<path d="M36.7806 12.4554C36.6419 12.2612 36.4484 12.117 36.2302 12.0329C35.768 11.8548 34.6981 11.5485 33.573 11.97C32.076 12.5308 32.8504 13.2661 33.0968 13.3723C33.3433 13.4784 33.0049 13.9756 33.2441 14.5608C33.4833 15.1459 34.257 15.0237 34.5588 15.4126C34.8607 15.8016 34.8097 16.1367 35.4871 15.9998C36.1645 15.8629 36.3935 16.5151 36.8864 15.2184C37.2972 14.1377 37.226 13.0789 36.7806 12.4554Z" fill="url(#paint81_radial)"/>
<path d="M38.0468 11.3547C38.0468 11.3547 39.6652 9.68931 41.0901 10.0787C41.6024 10.2779 41.5299 10.8742 41.9221 10.9832C42.3143 11.0921 42.5779 12.0031 42.1214 12.2177C41.6649 12.4323 42.2006 13.3619 41.6399 13.7152C41.0792 14.0684 36.3484 12.805 38.0468 11.3547Z" fill="url(#paint82_radial)"/>
<path d="M41.646 13.7109L38.7197 10.7846C38.311 11.0829 38.0468 11.3547 38.0468 11.3547C36.6752 12.5258 39.4963 13.5751 40.9283 13.7496C40.9707 13.7548 41.0118 13.7591 41.0515 13.7627C41.0521 13.7628 41.0527 13.7629 41.0532 13.7629C41.0924 13.7665 41.1303 13.7692 41.1667 13.7712C41.1677 13.7713 41.1686 13.7713 41.1696 13.7714C41.2054 13.7733 41.2398 13.7744 41.2726 13.7748C41.2739 13.7749 41.2753 13.7749 41.2766 13.7749C41.3089 13.7752 41.3396 13.7748 41.3686 13.7735C41.3702 13.7735 41.3718 13.7734 41.3733 13.7733C41.3875 13.7727 41.4012 13.7719 41.4146 13.7709C41.4159 13.7708 41.4171 13.7707 41.4184 13.7706C41.4307 13.7696 41.4426 13.7685 41.4542 13.7672C41.4557 13.767 41.4572 13.7669 41.4587 13.7667C41.4708 13.7653 41.4824 13.7637 41.4936 13.762C41.4955 13.7617 41.4973 13.7614 41.4992 13.761C41.5093 13.7594 41.519 13.7576 41.5284 13.7556C41.5296 13.7554 41.5309 13.7551 41.5321 13.7549C41.5422 13.7527 41.5517 13.7503 41.5608 13.7478C41.5628 13.7473 41.5647 13.7467 41.5666 13.7462C41.5749 13.7438 41.583 13.7412 41.5905 13.7385C41.5913 13.7382 41.5921 13.738 41.5928 13.7377C41.6008 13.7348 41.6082 13.7316 41.6153 13.7283C41.617 13.7276 41.6187 13.7268 41.6203 13.726C41.6272 13.7226 41.6339 13.7191 41.6398 13.7153C41.6398 13.7153 41.6399 13.7152 41.6399 13.7152C41.6421 13.7138 41.6439 13.7123 41.646 13.7109Z" fill="url(#paint83_linear)"/>
<path d="M37.7565 11.9751C37.7859 11.8489 37.8615 11.7383 37.9633 11.6582C38.2022 11.4703 38.8909 10.9657 39.5905 10.8024C40.4566 10.6003 39.1434 11.0919 38.7665 11.4797C38.3896 11.8675 39.4076 11.3787 40.22 11.6012C41.0325 11.8236 38.9069 11.8846 38.6201 12.1488C38.3332 12.413 39.1682 12.2924 39.5055 12.5568C39.8428 12.8212 38.7323 12.7224 38.5215 12.6352C38.3106 12.5479 38.9542 13.1583 38.9598 13.3326C38.9653 13.5069 38.0266 12.6912 37.8215 12.3622C37.7336 12.2212 37.7309 12.0848 37.7565 11.9751Z" fill="url(#paint84_linear)"/>
<path d="M37.6938 12.1874C37.6938 12.1874 39.5682 11.582 40.6707 12.896C41.052 13.4359 40.7166 13.4845 41.061 14.0016C41.4053 14.5187 41.1029 14.9695 40.6311 15.24C40.1594 15.5104 40.0592 16.5438 39.2276 16.3639C38.396 16.1839 38.3701 15.8115 37.9964 15.9639C37.6227 16.1162 37.0868 16.1181 36.897 15.0593C36.7072 14.0004 36.9846 12.3883 37.6938 12.1874Z" fill="url(#paint85_radial)"/>
<path d="M36.7403 12.3898C36.65 12.297 36.5282 12.2412 36.3996 12.2252C36.098 12.1876 35.2477 12.1111 34.5642 12.3325C33.7182 12.6065 35.0966 12.3495 35.6196 12.4871C36.1426 12.6246 35.0184 12.7316 34.4375 13.3415C33.8565 13.9514 35.7084 12.9063 36.0905 12.9844C36.4725 13.0626 35.6951 13.3904 35.5428 13.791C35.3905 14.1916 36.2905 13.5336 36.426 13.35C36.5615 13.1665 36.3255 14.0215 36.4107 14.1736C36.4959 14.3258 36.8787 13.1425 36.8845 12.7549C36.887 12.5888 36.8189 12.4706 36.7403 12.3898Z" fill="url(#paint86_linear)"/>
<path d="M37.2525 12.6488C37.3364 12.2998 37.6988 12.094 38.0452 12.1882C38.4906 12.3093 39.15 12.5044 39.468 12.6717C39.9722 12.937 39.0404 12.7418 38.7385 12.7373C38.4367 12.7327 39.2248 13.219 39.5754 13.7182C39.926 14.2174 39.5098 14.0551 39.2468 13.6806C38.9839 13.3062 38.8244 13.6149 39.3375 14.3199C39.7005 14.8187 39.1999 14.7507 38.5898 13.8026C37.9596 12.8234 37.506 12.7282 37.6981 13.0705C37.9139 13.4553 38.1575 13.7436 38.1111 14.0091C38.0853 14.1564 37.549 13.6828 37.2851 13.0592C37.2325 12.9349 37.2184 12.7972 37.2486 12.6656C37.2498 12.66 37.2512 12.6544 37.2525 12.6488Z" fill="url(#paint87_linear)"/>
<path d="M41.0335 13.959C41.0308 13.9546 41.0282 13.9503 41.0256 13.946C41.0198 13.9366 41.0142 13.9272 41.0088 13.9181C41.0061 13.9134 41.0033 13.9087 41.0007 13.904C40.9954 13.8947 40.9905 13.8856 40.9857 13.8766C40.9838 13.873 40.9817 13.8693 40.9798 13.8657C40.9739 13.8543 40.9684 13.8432 40.9631 13.8323C40.9606 13.8269 40.9582 13.8216 40.9558 13.8163C40.9531 13.8104 40.9504 13.8045 40.9479 13.7987C40.9454 13.793 40.943 13.7873 40.9407 13.7817C40.9386 13.7766 40.9367 13.7717 40.9348 13.7668C40.9326 13.761 40.9303 13.7552 40.9283 13.7496V13.7496C40.8188 13.448 40.979 13.3326 40.6706 12.8961C39.5681 11.582 37.6937 12.1875 37.6937 12.1875C37.3875 12.2742 36.9744 12.437 36.832 12.8919L39.9956 16.0635C40.0095 16.0459 40.0231 16.0279 40.0365 16.0096C40.0367 16.0094 40.0369 16.0091 40.037 16.0089C40.1078 15.912 40.1716 15.806 40.2352 15.703C40.2413 15.6932 40.2474 15.6834 40.2535 15.6736C40.2573 15.6674 40.2611 15.6613 40.2649 15.6552C40.2754 15.6385 40.2859 15.622 40.2964 15.6056C40.2981 15.603 40.2998 15.6004 40.3015 15.5979C40.3119 15.5817 40.3224 15.5658 40.333 15.5501C40.3347 15.5476 40.3365 15.545 40.3382 15.5425C40.3489 15.5268 40.3596 15.5114 40.3705 15.4964C40.3721 15.4942 40.3737 15.4919 40.3753 15.4897C40.3866 15.4741 40.3981 15.4589 40.4097 15.444C40.4108 15.4426 40.412 15.4411 40.4131 15.4397C40.4257 15.4237 40.4385 15.4082 40.4516 15.3933C40.4521 15.3927 40.4526 15.3922 40.4531 15.3916C40.4658 15.377 40.4788 15.3631 40.4921 15.3497C40.4934 15.3484 40.4947 15.3471 40.496 15.3458C40.5087 15.3331 40.5216 15.3209 40.5349 15.3094C40.5364 15.3081 40.5379 15.3068 40.5394 15.3055C40.5529 15.2939 40.5666 15.2831 40.5807 15.2728C40.5819 15.272 40.5831 15.271 40.5843 15.2702C40.5995 15.2593 40.6151 15.2492 40.6311 15.24C40.8669 15.1048 41.0605 14.9245 41.152 14.7134C41.1692 14.6738 41.1827 14.6331 41.1923 14.5914C41.1955 14.5775 41.1983 14.5636 41.2006 14.5494C41.2052 14.5213 41.2079 14.4926 41.2088 14.4636C41.2129 14.3184 41.1685 14.1633 41.0608 14.0017C41.0512 13.987 41.0422 13.9729 41.0335 13.959Z" fill="url(#paint88_linear)"/>
<path d="M34.7242 6.94152C34.7242 6.94152 36.2049 9.41975 36.2497 10.721C36.2946 12.0222 36.5389 12.9305 37.1015 13.002C37.664 13.0734 38.2014 12.2099 37.3375 10.5552C36.4736 8.90038 35.2623 7.25403 34.9073 6.78809C34.5522 6.32214 34.4557 6.63668 34.7242 6.94152Z" fill="url(#paint89_linear)"/>
<path d="M34.6807 7.1653C34.9596 7.1653 35.1857 6.93922 35.1857 6.66033C35.1857 6.38145 34.9596 6.15536 34.6807 6.15536C34.4019 6.15536 34.1758 6.38145 34.1758 6.66033C34.1758 6.93922 34.4019 7.1653 34.6807 7.1653Z" fill="url(#paint90_radial)"/>
<path d="M34.9341 7.90471C35.0726 7.90471 35.1849 7.79245 35.1849 7.65396C35.1849 7.51547 35.0726 7.4032 34.9341 7.4032C34.7956 7.4032 34.6833 7.51547 34.6833 7.65396C34.6833 7.79245 34.7956 7.90471 34.9341 7.90471Z" fill="url(#paint91_radial)"/>
<path d="M35.6636 7.79894C35.8021 7.79894 35.9144 7.68667 35.9144 7.54818C35.9144 7.40969 35.8021 7.29742 35.6636 7.29742C35.5251 7.29742 35.4128 7.40969 35.4128 7.54818C35.4128 7.68667 35.5251 7.79894 35.6636 7.79894Z" fill="url(#paint92_radial)"/>
<path d="M35.357 8.60271C35.4954 8.60271 35.6077 8.49044 35.6077 8.35195C35.6077 8.21346 35.4954 8.1012 35.357 8.1012C35.2185 8.1012 35.1062 8.21346 35.1062 8.35195C35.1062 8.49044 35.2185 8.60271 35.357 8.60271Z" fill="url(#paint93_radial)"/>
<path d="M36.0657 8.72967C36.2042 8.72967 36.3165 8.6174 36.3165 8.47891C36.3165 8.34042 36.2042 8.22815 36.0657 8.22815C35.9272 8.22815 35.8149 8.34042 35.8149 8.47891C35.8149 8.6174 35.9272 8.72967 36.0657 8.72967Z" fill="url(#paint94_radial)"/>
</g>
<defs>
<filter id="filter0_d" x="0" y="0" width="229" height="76" filterUnits="userSpaceOnUse" color-interpolation-filters="sRGB">
<feFlood flood-opacity="0" result="BackgroundImageFix"/>
<feColorMatrix in="SourceAlpha" type="matrix" values="0 0 0 0 0 0 0 0 0 0 0 0 0 0 0 0 0 0 127 0"/>
<feOffset dy="4"/>
<feGaussianBlur stdDeviation="2"/>
<feColorMatrix type="matrix" values="0 0 0 0 0 0 0 0 0 0 0 0 0 0 0 0 0 0 0.25 0"/>
<feBlend mode="normal" in2="BackgroundImageFix" result="effect1_dropShadow"/>
<feBlend mode="normal" in="SourceGraphic" in2="effect1_dropShadow" result="shape"/>
</filter>
<linearGradient id="paint0_linear" x1="67" y1="0" x2="67" y2="11" gradientUnits="userSpaceOnUse">
<stop stop-color="#FFD14B"/>
<stop offset="1" stop-color="#FFAF00"/>
</linearGradient>
<linearGradient id="paint1_linear" x1="67" y1="0" x2="67" y2="11" gradientUnits="userSpaceOnUse">
<stop stop-color="white"/>
<stop offset="1" stop-color="white" stop-opacity="0"/>
</linearGradient>
<linearGradient id="paint2_linear" x1="96.5" y1="0" x2="96.5" y2="11" gradientUnits="userSpaceOnUse">
<stop stop-color="#FFD14B"/>
<stop offset="1" stop-color="#FFAF00"/>
</linearGradient>
<linearGradient id="paint3_linear" x1="96.5" y1="0" x2="96.5" y2="11" gradientUnits="userSpaceOnUse">
<stop stop-color="white"/>
<stop offset="1" stop-color="white" stop-opacity="0"/>
</linearGradient>
<linearGradient id="paint4_linear" x1="67" y1="0" x2="67" y2="11" gradientUnits="userSpaceOnUse">
<stop stop-color="#FFD14B"/>
<stop offset="1" stop-color="#FFAF00"/>
</linearGradient>
<linearGradient id="paint5_linear" x1="67" y1="0" x2="67" y2="11" gradientUnits="userSpaceOnUse">
<stop stop-color="white"/>
<stop offset="1" stop-color="white" stop-opacity="0"/>
</linearGradient>
<linearGradient id="paint6_linear" x1="67" y1="0" x2="67" y2="11" gradientUnits="userSpaceOnUse">
<stop stop-color="#FFD14B"/>
<stop offset="1" stop-color="#FFAF00"/>
</linearGradient>
<linearGradient id="paint7_linear" x1="67" y1="0" x2="67" y2="11" gradientUnits="userSpaceOnUse">
<stop stop-color="white"/>
<stop offset="1" stop-color="white" stop-opacity="0"/>
</linearGradient>
<linearGradient id="paint8_linear" x1="119.927" y1="37.8994" x2="121.101" y2="39.0739" gradientUnits="userSpaceOnUse">
<stop stop-color="#979797"/>
<stop offset="1"/>
</linearGradient>
<linearGradient id="paint9_linear" x1="126.663" y1="37.2775" x2="126.663" y2="29.5962" gradientUnits="userSpaceOnUse">
<stop stop-color="#FF9111" stop-opacity="0"/>
<stop offset="1" stop-color="#F26500"/>
</linearGradient>
<linearGradient id="paint10_linear" x1="127.633" y1="10.5748" x2="131.13" y2="22.2015" gradientUnits="userSpaceOnUse">
<stop stop-color="#FFA981"/>
<stop offset="0.428" stop-color="#FF8666"/>
<stop offset="1" stop-color="#FF5C45"/>
</linearGradient>
<linearGradient id="paint11_linear" x1="135.313" y1="23.7184" x2="148.51" y2="36.9154" gradientUnits="userSpaceOnUse">
<stop stop-color="#FFA981"/>
<stop offset="0.428" stop-color="#FF8666"/>
<stop offset="1" stop-color="#FF5C45"/>
</linearGradient>
<linearGradient id="paint12_linear" x1="130.426" y1="20.2982" x2="138.701" y2="28.5738" gradientUnits="userSpaceOnUse">
<stop stop-color="#FFA981"/>
<stop offset="0.428" stop-color="#FF8666"/>
<stop offset="1" stop-color="#FF5C45"/>
</linearGradient>
<linearGradient id="paint13_linear" x1="145.604" y1="24.8773" x2="150.048" y2="18.3904" gradientUnits="userSpaceOnUse">
<stop stop-color="#FFA981" stop-opacity="0"/>
<stop offset="1" stop-color="#B82934"/>
</linearGradient>
<linearGradient id="paint14_linear" x1="129.225" y1="17.2772" x2="136.843" y2="30.292" gradientUnits="userSpaceOnUse">
<stop stop-color="#EFFBFF"/>
<stop offset="0.235" stop-color="#D5EBF7"/>
<stop offset="0.487" stop-color="#C2DFF1"/>
<stop offset="0.742" stop-color="#B6D7ED"/>
<stop offset="1" stop-color="#B2D5EC"/>
</linearGradient>
<linearGradient id="paint15_linear" x1="137.858" y1="27.3312" x2="149.048" y2="36.4574" gradientUnits="userSpaceOnUse">
<stop stop-color="#EFFBFF"/>
<stop offset="0.317" stop-color="#D7ECF8"/>
<stop offset="0.747" stop-color="#BCDBEF"/>
<stop offset="1" stop-color="#B2D5EC"/>
</linearGradient>
<linearGradient id="paint16_linear" x1="130.749" y1="28.2494" x2="124.204" y2="34.7949" gradientUnits="userSpaceOnUse">
<stop stop-color="#FFA981" stop-opacity="0"/>
<stop offset="1" stop-color="#B82934"/>
</linearGradient>
<linearGradient id="paint17_linear" x1="122.514" y1="22.8559" x2="116.931" y2="28.4393" gradientUnits="userSpaceOnUse">
<stop stop-color="#B2D5EC" stop-opacity="0"/>
<stop offset="1" stop-color="#7797B0"/>
</linearGradient>
<linearGradient id="paint18_linear" x1="136.138" y1="36.4797" x2="130.555" y2="42.0624" gradientUnits="userSpaceOnUse">
<stop stop-color="#B2D5EC" stop-opacity="0"/>
<stop offset="1" stop-color="#7797B0"/>
</linearGradient>
<linearGradient id="paint19_linear" x1="119.654" y1="17.154" x2="113.108" y2="23.7002" gradientUnits="userSpaceOnUse">
<stop stop-color="#FFA981" stop-opacity="0"/>
<stop offset="1" stop-color="#B82934"/>
</linearGradient>
<linearGradient id="paint20_linear" x1="141.833" y1="39.3339" x2="135.287" y2="45.8794" gradientUnits="userSpaceOnUse">
<stop stop-color="#FFA981" stop-opacity="0"/>
<stop offset="1" stop-color="#B82934"/>
</linearGradient>
<linearGradient id="paint21_linear" x1="144.02" y1="22.455" x2="146.926" y2="14.5246" gradientUnits="userSpaceOnUse">
<stop stop-color="#B2D5EC" stop-opacity="0"/>
<stop offset="1" stop-color="#7797B0"/>
</linearGradient>
<linearGradient id="paint22_linear" x1="144.107" y1="13.8485" x2="145.343" y2="15.0859" gradientUnits="userSpaceOnUse">
<stop stop-color="#D7D7D7"/>
<stop offset="1"/>
</linearGradient>
<linearGradient id="paint23_linear" x1="188.622" y1="17.107" x2="183.741" y2="30.0943" gradientUnits="userSpaceOnUse">
<stop offset="0.003" stop-color="#FFE000"/>
<stop offset="0.142" stop-color="#DCDE00"/>
<stop offset="0.274" stop-color="#C3DD00"/>
<stop offset="0.393" stop-color="#B4DC00"/>
<stop offset="0.491" stop-color="#AFDC00"/>
<stop offset="0.715" stop-color="#AEDA00"/>
<stop offset="0.796" stop-color="#A8D300"/>
<stop offset="0.854" stop-color="#9FC800"/>
<stop offset="0.901" stop-color="#91B700"/>
<stop offset="0.941" stop-color="#80A100"/>
<stop offset="0.975" stop-color="#6B8600"/>
<stop offset="1" stop-color="#586E00"/>
</linearGradient>
<linearGradient id="paint24_linear" x1="188.551" y1="23.1757" x2="184.778" y2="21.7577" gradientUnits="userSpaceOnUse">
<stop stop-color="#AFDC00" stop-opacity="0"/>
<stop offset="0.472" stop-color="#84A600" stop-opacity="0.472"/>
<stop offset="1" stop-color="#586E00"/>
</linearGradient>
<linearGradient id="paint25_linear" x1="208.125" y1="29.3759" x2="197.4" y2="24.9683" gradientUnits="userSpaceOnUse">
<stop offset="0.003" stop-color="#FFE000"/>
<stop offset="0.142" stop-color="#DCDE00"/>
<stop offset="0.274" stop-color="#C3DD00"/>
<stop offset="0.393" stop-color="#B4DC00"/>
<stop offset="0.491" stop-color="#AFDC00"/>
<stop offset="0.715" stop-color="#AEDA00"/>
<stop offset="0.796" stop-color="#A8D300"/>
<stop offset="0.854" stop-color="#9FC800"/>
<stop offset="0.901" stop-color="#91B700"/>
<stop offset="0.941" stop-color="#80A100"/>
<stop offset="0.975" stop-color="#6B8600"/>
<stop offset="1" stop-color="#586E00"/>
</linearGradient>
<linearGradient id="paint26_linear" x1="204.404" y1="25.8846" x2="203.061" y2="29.339" gradientUnits="userSpaceOnUse">
<stop stop-color="#AFDC00" stop-opacity="0"/>
<stop offset="0.472" stop-color="#84A600" stop-opacity="0.472"/>
<stop offset="1" stop-color="#586E00"/>
</linearGradient>
<linearGradient id="paint27_linear" x1="191.017" y1="36.8194" x2="183.635" y2="30.0137" gradientUnits="userSpaceOnUse">
<stop offset="0.003" stop-color="#FFE000"/>
<stop offset="0.142" stop-color="#DCDE00"/>
<stop offset="0.274" stop-color="#C3DD00"/>
<stop offset="0.393" stop-color="#B4DC00"/>
<stop offset="0.491" stop-color="#AFDC00"/>
<stop offset="0.715" stop-color="#AEDA00"/>
<stop offset="0.796" stop-color="#A8D300"/>
<stop offset="0.854" stop-color="#9FC800"/>
<stop offset="0.901" stop-color="#91B700"/>
<stop offset="0.941" stop-color="#80A100"/>
<stop offset="0.975" stop-color="#6B8600"/>
<stop offset="1" stop-color="#586E00"/>
</linearGradient>
<linearGradient id="paint28_linear" x1="188.96" y1="32.9588" x2="187.134" y2="34.938" gradientUnits="userSpaceOnUse">
<stop stop-color="#AFDC00" stop-opacity="0"/>
<stop offset="0.472" stop-color="#84A600" stop-opacity="0.472"/>
<stop offset="1" stop-color="#586E00"/>
</linearGradient>
<linearGradient id="paint29_linear" x1="212.811" y1="26.4049" x2="199.855" y2="26.0409" gradientUnits="userSpaceOnUse">
<stop offset="0.003" stop-color="#FFE000"/>
<stop offset="0.142" stop-color="#DCDE00"/>
<stop offset="0.274" stop-color="#C3DD00"/>
<stop offset="0.393" stop-color="#B4DC00"/>
<stop offset="0.491" stop-color="#AFDC00"/>
<stop offset="0.715" stop-color="#AEDA00"/>
<stop offset="0.796" stop-color="#A8D300"/>
<stop offset="0.854" stop-color="#9FC800"/>
<stop offset="0.901" stop-color="#91B700"/>
<stop offset="0.941" stop-color="#80A100"/>
<stop offset="0.975" stop-color="#6B8600"/>
<stop offset="1" stop-color="#586E00"/>
</linearGradient>
<linearGradient id="paint30_linear" x1="207.417" y1="28.618" x2="207.555" y2="23.6864" gradientUnits="userSpaceOnUse">
<stop stop-color="#AFDC00" stop-opacity="0"/>
<stop offset="0.472" stop-color="#84A600" stop-opacity="0.472"/>
<stop offset="1" stop-color="#586E00"/>
</linearGradient>
<linearGradient id="paint31_linear" x1="193.186" y1="16.647" x2="186.099" y2="31.6605" gradientUnits="userSpaceOnUse">
<stop offset="0.003" stop-color="#FFE000"/>
<stop offset="0.142" stop-color="#DCDE00"/>
<stop offset="0.274" stop-color="#C3DD00"/>
<stop offset="0.393" stop-color="#B4DC00"/>
<stop offset="0.491" stop-color="#AFDC00"/>
<stop offset="0.556" stop-color="#A1CA00"/>
<stop offset="0.759" stop-color="#7A9900"/>
<stop offset="0.914" stop-color="#617A00"/>
<stop offset="1" stop-color="#586E00"/>
</linearGradient>
<linearGradient id="paint32_linear" x1="191.191" y1="21.1661" x2="188.866" y2="19.3059" gradientUnits="userSpaceOnUse">
<stop stop-color="#AFDC00" stop-opacity="0"/>
<stop offset="0.472" stop-color="#84A600" stop-opacity="0.472"/>
<stop offset="1" stop-color="#586E00"/>
</linearGradient>
<linearGradient id="paint33_linear" x1="196.977" y1="16.1795" x2="188.193" y2="29.3259" gradientUnits="userSpaceOnUse">
<stop offset="0.003" stop-color="#FFE000"/>
<stop offset="0.142" stop-color="#DCDE00"/>
<stop offset="0.274" stop-color="#C3DD00"/>
<stop offset="0.393" stop-color="#B4DC00"/>
<stop offset="0.491" stop-color="#AFDC00"/>
<stop offset="0.556" stop-color="#A1CA00"/>
<stop offset="0.759" stop-color="#7A9900"/>
<stop offset="0.914" stop-color="#617A00"/>
<stop offset="1" stop-color="#586E00"/>
</linearGradient>
<linearGradient id="paint34_linear" x1="194.967" y1="21.8504" x2="191.161" y2="18.8757" gradientUnits="userSpaceOnUse">
<stop stop-color="#AFDC00" stop-opacity="0"/>
<stop offset="0.472" stop-color="#84A600" stop-opacity="0.472"/>
<stop offset="1" stop-color="#586E00"/>
</linearGradient>
<linearGradient id="paint35_linear" x1="200.74" y1="16.86" x2="191.299" y2="27.615" gradientUnits="userSpaceOnUse">
<stop offset="0.003" stop-color="#FFE000"/>
<stop offset="0.142" stop-color="#DCDE00"/>
<stop offset="0.274" stop-color="#C3DD00"/>
<stop offset="0.393" stop-color="#B4DC00"/>
<stop offset="0.491" stop-color="#AFDC00"/>
<stop offset="0.556" stop-color="#A1CA00"/>
<stop offset="0.759" stop-color="#7A9900"/>
<stop offset="0.914" stop-color="#617A00"/>
<stop offset="1" stop-color="#586E00"/>
</linearGradient>
<linearGradient id="paint36_linear" x1="198.644" y1="23.1945" x2="192.486" y2="18.3811" gradientUnits="userSpaceOnUse">
<stop stop-color="#AFDC00" stop-opacity="0"/>
<stop offset="0.472" stop-color="#84A600" stop-opacity="0.472"/>
<stop offset="1" stop-color="#586E00"/>
</linearGradient>
<linearGradient id="paint37_linear" x1="204.714" y1="15.9563" x2="193.411" y2="29.1902" gradientUnits="userSpaceOnUse">
<stop offset="0.003" stop-color="#FFE000"/>
<stop offset="0.142" stop-color="#DCDE00"/>
<stop offset="0.274" stop-color="#C3DD00"/>
<stop offset="0.393" stop-color="#B4DC00"/>
<stop offset="0.491" stop-color="#AFDC00"/>
<stop offset="0.556" stop-color="#A1CA00"/>
<stop offset="0.759" stop-color="#7A9900"/>
<stop offset="0.914" stop-color="#617A00"/>
<stop offset="1" stop-color="#586E00"/>
</linearGradient>
<linearGradient id="paint38_linear" x1="201.669" y1="24.1382" x2="193.708" y2="17.9148" gradientUnits="userSpaceOnUse">
<stop stop-color="#AFDC00" stop-opacity="0"/>
<stop offset="0.472" stop-color="#84A600" stop-opacity="0.472"/>
<stop offset="1" stop-color="#586E00"/>
</linearGradient>
<linearGradient id="paint39_linear" x1="207.311" y1="18.8042" x2="195.892" y2="29.5141" gradientUnits="userSpaceOnUse">
<stop offset="0.003" stop-color="#FFE000"/>
<stop offset="0.142" stop-color="#DCDE00"/>
<stop offset="0.274" stop-color="#C3DD00"/>
<stop offset="0.393" stop-color="#B4DC00"/>
<stop offset="0.491" stop-color="#AFDC00"/>
<stop offset="0.556" stop-color="#A1CA00"/>
<stop offset="0.759" stop-color="#7A9900"/>
<stop offset="0.914" stop-color="#617A00"/>
<stop offset="1" stop-color="#586E00"/>
</linearGradient>
<linearGradient id="paint40_linear" x1="205.501" y1="26.0854" x2="194.113" y2="17.1826" gradientUnits="userSpaceOnUse">
<stop stop-color="#AFDC00" stop-opacity="0"/>
<stop offset="0.472" stop-color="#84A600" stop-opacity="0.472"/>
<stop offset="1" stop-color="#586E00"/>
</linearGradient>
<linearGradient id="paint41_linear" x1="206.718" y1="23.0773" x2="196.392" y2="28.7256" gradientUnits="userSpaceOnUse">
<stop offset="0.003" stop-color="#FFE000"/>
<stop offset="0.142" stop-color="#DCDE00"/>
<stop offset="0.274" stop-color="#C3DD00"/>
<stop offset="0.393" stop-color="#B4DC00"/>
<stop offset="0.491" stop-color="#AFDC00"/>
<stop offset="0.556" stop-color="#A1CA00"/>
<stop offset="0.759" stop-color="#7A9900"/>
<stop offset="0.914" stop-color="#617A00"/>
<stop offset="1" stop-color="#586E00"/>
</linearGradient>
<linearGradient id="paint42_linear" x1="207.297" y1="27.4151" x2="195.386" y2="18.1038" gradientUnits="userSpaceOnUse">
<stop stop-color="#AFDC00" stop-opacity="0"/>
<stop offset="0.472" stop-color="#84A600" stop-opacity="0.472"/>
<stop offset="1" stop-color="#586E00"/>
</linearGradient>
<linearGradient id="paint43_linear" x1="194.799" y1="35.8701" x2="185.704" y2="27.0418" gradientUnits="userSpaceOnUse">
<stop offset="0.003" stop-color="#FFE000"/>
<stop offset="0.142" stop-color="#DCDE00"/>
<stop offset="0.274" stop-color="#C3DD00"/>
<stop offset="0.393" stop-color="#B4DC00"/>
<stop offset="0.491" stop-color="#AFDC00"/>
<stop offset="0.556" stop-color="#A1CA00"/>
<stop offset="0.759" stop-color="#7A9900"/>
<stop offset="0.914" stop-color="#617A00"/>
<stop offset="1" stop-color="#586E00"/>
</linearGradient>
<linearGradient id="paint44_linear" x1="192.548" y1="31.4518" x2="189.305" y2="35.3347" gradientUnits="userSpaceOnUse">
<stop stop-color="#AFDC00" stop-opacity="0"/>
<stop offset="0.472" stop-color="#84A600" stop-opacity="0.472"/>
<stop offset="1" stop-color="#586E00"/>
</linearGradient>
<linearGradient id="paint45_linear" x1="198.489" y1="35.6383" x2="188.803" y2="26.2875" gradientUnits="userSpaceOnUse">
<stop offset="0.003" stop-color="#FFE000"/>
<stop offset="0.142" stop-color="#DCDE00"/>
<stop offset="0.274" stop-color="#C3DD00"/>
<stop offset="0.393" stop-color="#B4DC00"/>
<stop offset="0.491" stop-color="#AFDC00"/>
<stop offset="0.556" stop-color="#A1CA00"/>
<stop offset="0.759" stop-color="#7A9900"/>
<stop offset="0.914" stop-color="#617A00"/>
<stop offset="1" stop-color="#586E00"/>
</linearGradient>
<linearGradient id="paint46_linear" x1="196.2" y1="29.702" x2="190.299" y2="35.1564" gradientUnits="userSpaceOnUse">
<stop stop-color="#AFDC00" stop-opacity="0"/>
<stop offset="0.472" stop-color="#84A600" stop-opacity="0.472"/>
<stop offset="1" stop-color="#586E00"/>
</linearGradient>
<linearGradient id="paint47_linear" x1="204.249" y1="35.1188" x2="193.489" y2="22.5942" gradientUnits="userSpaceOnUse">
<stop offset="0.003" stop-color="#FFE000"/>
<stop offset="0.142" stop-color="#DCDE00"/>
<stop offset="0.274" stop-color="#C3DD00"/>
<stop offset="0.393" stop-color="#B4DC00"/>
<stop offset="0.491" stop-color="#AFDC00"/>
<stop offset="0.556" stop-color="#A1CA00"/>
<stop offset="0.759" stop-color="#7A9900"/>
<stop offset="0.914" stop-color="#617A00"/>
<stop offset="1" stop-color="#586E00"/>
</linearGradient>
<linearGradient id="paint48_linear" x1="201.528" y1="27.214" x2="193.381" y2="33.6215" gradientUnits="userSpaceOnUse">
<stop stop-color="#AFDC00" stop-opacity="0"/>
<stop offset="0.472" stop-color="#84A600" stop-opacity="0.472"/>
<stop offset="1" stop-color="#586E00"/>
</linearGradient>
<linearGradient id="paint49_linear" x1="206.581" y1="32.8626" x2="195.649" y2="21.2952" gradientUnits="userSpaceOnUse">
<stop offset="0.003" stop-color="#FFE000"/>
<stop offset="0.142" stop-color="#DCDE00"/>
<stop offset="0.274" stop-color="#C3DD00"/>
<stop offset="0.393" stop-color="#B4DC00"/>
<stop offset="0.491" stop-color="#AFDC00"/>
<stop offset="0.556" stop-color="#A1CA00"/>
<stop offset="0.759" stop-color="#7A9900"/>
<stop offset="0.914" stop-color="#617A00"/>
<stop offset="1" stop-color="#586E00"/>
</linearGradient>
<linearGradient id="paint50_linear" x1="205.348" y1="25.255" x2="192.684" y2="33.9791" gradientUnits="userSpaceOnUse">
<stop stop-color="#AFDC00" stop-opacity="0"/>
<stop offset="0.472" stop-color="#84A600" stop-opacity="0.472"/>
<stop offset="1" stop-color="#586E00"/>
</linearGradient>
<linearGradient id="paint51_linear" x1="198.543" y1="33.5983" x2="191.998" y2="21.9822" gradientUnits="userSpaceOnUse">
<stop offset="0.003" stop-color="#FFE000"/>
<stop offset="0.142" stop-color="#DCDE00"/>
<stop offset="0.274" stop-color="#C3DD00"/>
<stop offset="0.393" stop-color="#B4DC00"/>
<stop offset="0.491" stop-color="#AFDC00"/>
<stop offset="0.556" stop-color="#A1CA00"/>
<stop offset="0.759" stop-color="#7A9900"/>
<stop offset="0.914" stop-color="#617A00"/>
<stop offset="1" stop-color="#586E00"/>
</linearGradient>
<linearGradient id="paint52_linear" x1="202.26" y1="29.7473" x2="183.001" y2="31.8043" gradientUnits="userSpaceOnUse">
<stop stop-color="#AFDC00" stop-opacity="0"/>
<stop offset="0.472" stop-color="#84A600" stop-opacity="0.472"/>
<stop offset="1" stop-color="#586E00"/>
</linearGradient>
<linearGradient id="paint53_linear" x1="206.331" y1="27.9522" x2="178.978" y2="29.7229" gradientUnits="userSpaceOnUse">
<stop offset="0.003" stop-color="#FFE000"/>
<stop offset="0.142" stop-color="#DCDE00"/>
<stop offset="0.274" stop-color="#C3DD00"/>
<stop offset="0.393" stop-color="#B4DC00"/>
<stop offset="0.491" stop-color="#AFDC00"/>
<stop offset="0.715" stop-color="#AEDA00"/>
<stop offset="0.796" stop-color="#A8D300"/>
<stop offset="0.854" stop-color="#9FC800"/>
<stop offset="0.901" stop-color="#91B700"/>
<stop offset="0.941" stop-color="#80A100"/>
<stop offset="0.975" stop-color="#6B8600"/>
<stop offset="1" stop-color="#586E00"/>
</linearGradient>
<linearGradient id="paint54_linear" x1="194.101" y1="35.1352" x2="182.903" y2="21.2558" gradientUnits="userSpaceOnUse">
<stop stop-color="#AFDC00" stop-opacity="0"/>
<stop offset="0.472" stop-color="#84A600" stop-opacity="0.472"/>
<stop offset="1" stop-color="#586E00"/>
</linearGradient>
<linearGradient id="paint55_linear" x1="204.363" y1="39.0163" x2="191.129" y2="35.4521" gradientUnits="userSpaceOnUse">
<stop offset="0.003" stop-color="#FFE000"/>
<stop offset="0.142" stop-color="#DCDE00"/>
<stop offset="0.274" stop-color="#C3DD00"/>
<stop offset="0.393" stop-color="#B4DC00"/>
<stop offset="0.491" stop-color="#AFDC00"/>
<stop offset="0.556" stop-color="#A1CA00"/>
<stop offset="0.759" stop-color="#7A9900"/>
<stop offset="0.914" stop-color="#617A00"/>
<stop offset="1" stop-color="#586E00"/>
</linearGradient>
<linearGradient id="paint56_linear" x1="199.809" y1="34.4902" x2="195.22" y2="44.8497" gradientUnits="userSpaceOnUse">
<stop stop-color="#AFDC00" stop-opacity="0"/>
<stop offset="0.472" stop-color="#84A600" stop-opacity="0.472"/>
<stop offset="1" stop-color="#586E00"/>
</linearGradient>
<linearGradient id="paint57_linear" x1="206.931" y1="38.8214" x2="192.303" y2="35.3737" gradientUnits="userSpaceOnUse">
<stop offset="0.003" stop-color="#FFE000"/>
<stop offset="0.142" stop-color="#DCDE00"/>
<stop offset="0.274" stop-color="#C3DD00"/>
<stop offset="0.393" stop-color="#B4DC00"/>
<stop offset="0.491" stop-color="#AFDC00"/>
<stop offset="0.556" stop-color="#A1CA00"/>
<stop offset="0.759" stop-color="#7A9900"/>
<stop offset="0.914" stop-color="#617A00"/>
<stop offset="1" stop-color="#586E00"/>
</linearGradient>
<linearGradient id="paint58_linear" x1="201.783" y1="34.0185" x2="197.113" y2="45.5312" gradientUnits="userSpaceOnUse">
<stop stop-color="#AFDC00" stop-opacity="0"/>
<stop offset="0.472" stop-color="#84A600" stop-opacity="0.472"/>
<stop offset="1" stop-color="#586E00"/>
</linearGradient>
<linearGradient id="paint59_linear" x1="189.369" y1="41.5285" x2="200.101" y2="28.4473" gradientUnits="userSpaceOnUse">
<stop stop-color="#586E00"/>
<stop offset="0.025" stop-color="#6B8600"/>
<stop offset="0.059" stop-color="#80A100"/>
<stop offset="0.099" stop-color="#91B700"/>
<stop offset="0.146" stop-color="#9FC800"/>
<stop offset="0.204" stop-color="#A8D300"/>
<stop offset="0.285" stop-color="#AEDA00"/>
<stop offset="0.509" stop-color="#AFDC00"/>
<stop offset="0.607" stop-color="#B4DC00"/>
<stop offset="0.727" stop-color="#C3DD00"/>
<stop offset="0.858" stop-color="#DCDE00"/>
<stop offset="0.998" stop-color="#FFE000"/>
</linearGradient>
<linearGradient id="paint60_linear" x1="194.587" y1="32.6842" x2="195.536" y2="42.2993" gradientUnits="userSpaceOnUse">
<stop stop-color="#AFDC00" stop-opacity="0"/>
<stop offset="0.472" stop-color="#84A600" stop-opacity="0.472"/>
<stop offset="1" stop-color="#586E00"/>
</linearGradient>
<linearGradient id="paint61_linear" x1="204.504" y1="43.1032" x2="188.916" y2="35.8744" gradientUnits="userSpaceOnUse">
<stop offset="0.003" stop-color="#FFE000"/>
<stop offset="0.142" stop-color="#DCDE00"/>
<stop offset="0.274" stop-color="#C3DD00"/>
<stop offset="0.393" stop-color="#B4DC00"/>
<stop offset="0.491" stop-color="#AFDC00"/>
<stop offset="0.556" stop-color="#A1CA00"/>
<stop offset="0.759" stop-color="#7A9900"/>
<stop offset="0.914" stop-color="#617A00"/>
<stop offset="1" stop-color="#586E00"/>
</linearGradient>
<linearGradient id="paint62_linear" x1="198.144" y1="37.5156" x2="194.492" y2="44.5726" gradientUnits="userSpaceOnUse">
<stop stop-color="#AFDC00" stop-opacity="0"/>
<stop offset="0.472" stop-color="#84A600" stop-opacity="0.472"/>
<stop offset="1" stop-color="#586E00"/>
</linearGradient>
<linearGradient id="paint63_linear" x1="207.806" y1="40.7666" x2="191.129" y2="36.6308" gradientUnits="userSpaceOnUse">
<stop offset="0.003" stop-color="#FFE000"/>
<stop offset="0.142" stop-color="#DCDE00"/>
<stop offset="0.274" stop-color="#C3DD00"/>
<stop offset="0.393" stop-color="#B4DC00"/>
<stop offset="0.491" stop-color="#AFDC00"/>
<stop offset="0.556" stop-color="#A1CA00"/>
<stop offset="0.759" stop-color="#7A9900"/>
<stop offset="0.914" stop-color="#617A00"/>
<stop offset="1" stop-color="#586E00"/>
</linearGradient>
<linearGradient id="paint64_linear" x1="200.501" y1="36.4891" x2="198.257" y2="44.1119" gradientUnits="userSpaceOnUse">
<stop stop-color="#AFDC00" stop-opacity="0"/>
<stop offset="0.472" stop-color="#84A600" stop-opacity="0.472"/>
<stop offset="1" stop-color="#586E00"/>
</linearGradient>
<linearGradient id="paint65_linear" x1="210.414" y1="37.5589" x2="194.05" y2="38.2709" gradientUnits="userSpaceOnUse">
<stop offset="0.003" stop-color="#FFE000"/>
<stop offset="0.142" stop-color="#DCDE00"/>
<stop offset="0.274" stop-color="#C3DD00"/>
<stop offset="0.393" stop-color="#B4DC00"/>
<stop offset="0.491" stop-color="#AFDC00"/>
<stop offset="0.556" stop-color="#A1CA00"/>
<stop offset="0.759" stop-color="#7A9900"/>
<stop offset="0.914" stop-color="#617A00"/>
<stop offset="1" stop-color="#586E00"/>
</linearGradient>
<linearGradient id="paint66_linear" x1="202.582" y1="36.3168" x2="202.583" y2="41.4449" gradientUnits="userSpaceOnUse">
<stop stop-color="#AFDC00" stop-opacity="0"/>
<stop offset="0.472" stop-color="#84A600" stop-opacity="0.472"/>
<stop offset="1" stop-color="#586E00"/>
</linearGradient>
<linearGradient id="paint67_linear" x1="30.104" y1="14.8131" x2="37.8391" y2="14.3226" gradientUnits="userSpaceOnUse">
<stop offset="0.003" stop-color="#FFE000"/>
<stop offset="0.018" stop-color="#FCE000"/>
<stop offset="0.319" stop-color="#C5DD00"/>
<stop offset="0.464" stop-color="#AFDC00"/>
<stop offset="0.55" stop-color="#A7D200"/>
<stop offset="0.695" stop-color="#93B800"/>
<stop offset="0.879" stop-color="#718E00"/>
<stop offset="1" stop-color="#586E00"/>
</linearGradient>
<linearGradient id="paint68_linear" x1="32.761" y1="13.4803" x2="34.0637" y2="15.9994" gradientUnits="userSpaceOnUse">
<stop stop-color="#AFDC00" stop-opacity="0"/>
<stop offset="0.472" stop-color="#84A600" stop-opacity="0.472"/>
<stop offset="1" stop-color="#586E00"/>
</linearGradient>
<linearGradient id="paint69_linear" x1="35.8479" y1="19.405" x2="38.5855" y2="12.1537" gradientUnits="userSpaceOnUse">
<stop offset="0.003" stop-color="#FFE000"/>
<stop offset="0.018" stop-color="#FCE000"/>
<stop offset="0.319" stop-color="#C5DD00"/>
<stop offset="0.464" stop-color="#AFDC00"/>
<stop offset="0.55" stop-color="#A7D200"/>
<stop offset="0.695" stop-color="#93B800"/>
<stop offset="0.879" stop-color="#718E00"/>
<stop offset="1" stop-color="#586E00"/>
</linearGradient>
<linearGradient id="paint70_linear" x1="35.7268" y1="16.4352" x2="38.5589" y2="16.2851" gradientUnits="userSpaceOnUse">
<stop stop-color="#AFDC00" stop-opacity="0"/>
<stop offset="0.472" stop-color="#84A600" stop-opacity="0.472"/>
<stop offset="1" stop-color="#586E00"/>
</linearGradient>
<linearGradient id="paint71_linear" x1="44.9285" y1="14.9946" x2="37.2311" y2="14.0862" gradientUnits="userSpaceOnUse">
<stop offset="0.003" stop-color="#FFE000"/>
<stop offset="0.018" stop-color="#FCE000"/>
<stop offset="0.319" stop-color="#C5DD00"/>
<stop offset="0.464" stop-color="#AFDC00"/>
<stop offset="0.55" stop-color="#A7D200"/>
<stop offset="0.695" stop-color="#93B800"/>
<stop offset="0.879" stop-color="#718E00"/>
<stop offset="1" stop-color="#586E00"/>
</linearGradient>
<linearGradient id="paint72_linear" x1="42.3474" y1="13.5194" x2="40.91" y2="15.9644" gradientUnits="userSpaceOnUse">
<stop stop-color="#AFDC00" stop-opacity="0"/>
<stop offset="0.472" stop-color="#84A600" stop-opacity="0.472"/>
<stop offset="1" stop-color="#586E00"/>
</linearGradient>
<linearGradient id="paint73_linear" x1="35.8453" y1="17.1671" x2="34.1877" y2="13.5297" gradientUnits="userSpaceOnUse">
<stop stop-color="#AFDC00" stop-opacity="0"/>
<stop offset="0.472" stop-color="#84A600" stop-opacity="0.472"/>
<stop offset="1" stop-color="#586E00"/>
</linearGradient>
<linearGradient id="paint74_linear" x1="39.3266" y1="17.5169" x2="36.251" y2="14.4414" gradientUnits="userSpaceOnUse">
<stop stop-color="#AFDC00" stop-opacity="0"/>
<stop offset="0.472" stop-color="#84A600" stop-opacity="0.472"/>
<stop offset="1" stop-color="#586E00"/>
</linearGradient>
<linearGradient id="paint75_linear" x1="42.458" y1="15.5097" x2="40.6957" y2="14.0741" gradientUnits="userSpaceOnUse">
<stop stop-color="#AFDC00" stop-opacity="0"/>
<stop offset="0.472" stop-color="#84A600" stop-opacity="0.472"/>
<stop offset="1" stop-color="#586E00"/>
</linearGradient>
<radialGradient id="paint76_radial" cx="0" cy="0" r="1" gradientUnits="userSpaceOnUse" gradientTransform="translate(37.0444 14.1805) rotate(-12.0812) scale(6.66052 6.66091)">
<stop stop-color="#FF5C45"/>
<stop offset="0.29" stop-color="#FF5F47"/>
<stop offset="0.498" stop-color="#FF684E"/>
<stop offset="0.681" stop-color="#FF785B"/>
<stop offset="0.847" stop-color="#FF8E6C"/>
<stop offset="0.998" stop-color="#FFA981"/>
</radialGradient>
<linearGradient id="paint77_linear" x1="39.8844" y1="9.97242" x2="35.725" y2="9.97242" gradientUnits="userSpaceOnUse">
<stop stop-color="#FFA981" stop-opacity="0"/>
<stop offset="1" stop-color="#B82934"/>
</linearGradient>
<linearGradient id="paint78_linear" x1="38.2421" y1="8.3568" x2="37.5572" y2="12.2126" gradientUnits="userSpaceOnUse">
<stop stop-color="#FFA981" stop-opacity="0"/>
<stop offset="1" stop-color="#B82934"/>
</linearGradient>
<radialGradient id="paint79_radial" cx="0" cy="0" r="1" gradientUnits="userSpaceOnUse" gradientTransform="translate(39.4631 13.2399) scale(6.8274)">
<stop stop-color="#FF5C45"/>
<stop offset="0.29" stop-color="#FF5F47"/>
<stop offset="0.498" stop-color="#FF684E"/>
<stop offset="0.681" stop-color="#FF785B"/>
<stop offset="0.847" stop-color="#FF8E6C"/>
<stop offset="0.998" stop-color="#FFA981"/>
</radialGradient>
<linearGradient id="paint80_linear" x1="33.8729" y1="9.08276" x2="37.666" y2="13.0742" gradientUnits="userSpaceOnUse">
<stop stop-color="#FFA981" stop-opacity="0"/>
<stop offset="1" stop-color="#B82934"/>
</linearGradient>
<radialGradient id="paint81_radial" cx="0" cy="0" r="1" gradientUnits="userSpaceOnUse" gradientTransform="translate(39.7188 9.16125) rotate(8.65574) scale(7.08039 7.39718)">
<stop stop-color="#FF5C45"/>
<stop offset="0.29" stop-color="#FF5F47"/>
<stop offset="0.498" stop-color="#FF684E"/>
<stop offset="0.681" stop-color="#FF785B"/>
<stop offset="0.847" stop-color="#FF8E6C"/>
<stop offset="0.998" stop-color="#FFA981"/>
</radialGradient>
<radialGradient id="paint82_radial" cx="0" cy="0" r="1" gradientUnits="userSpaceOnUse" gradientTransform="translate(33.9497 12.0356) rotate(-12.1735) scale(6.34532 7.3281)">
<stop stop-color="#FF5C45"/>
<stop offset="0.29" stop-color="#FF5F47"/>
<stop offset="0.498" stop-color="#FF684E"/>
<stop offset="0.681" stop-color="#FF785B"/>
<stop offset="0.847" stop-color="#FF8E6C"/>
<stop offset="0.998" stop-color="#FFA981"/>
</radialGradient>
<linearGradient id="paint83_linear" x1="40.4719" y1="13.0808" x2="37.302" y2="11.0317" gradientUnits="userSpaceOnUse">
<stop stop-color="#FFA981" stop-opacity="0"/>
<stop offset="1" stop-color="#B82934"/>
</linearGradient>
<linearGradient id="paint84_linear" x1="41.106" y1="12.116" x2="37.1918" y2="11.9793" gradientUnits="userSpaceOnUse">
<stop stop-color="#FFA981" stop-opacity="0"/>
<stop offset="1" stop-color="#B82934"/>
</linearGradient>
<radialGradient id="paint85_radial" cx="0" cy="0" r="1" gradientUnits="userSpaceOnUse" gradientTransform="translate(37.1059 8.41086) rotate(-13.4327) scale(6.41118)">
<stop stop-color="#FF5C45"/>
<stop offset="0.29" stop-color="#FF5F47"/>
<stop offset="0.498" stop-color="#FF684E"/>
<stop offset="0.681" stop-color="#FF785B"/>
<stop offset="0.847" stop-color="#FF8E6C"/>
<stop offset="0.998" stop-color="#FFA981"/>
</radialGradient>
<linearGradient id="paint86_linear" x1="33.9435" y1="14.2401" x2="37.2251" y2="12.1026" gradientUnits="userSpaceOnUse">
<stop stop-color="#FFA981" stop-opacity="0"/>
<stop offset="1" stop-color="#B82934"/>
</linearGradient>
<linearGradient id="paint87_linear" x1="40.7034" y1="14.9496" x2="36.4456" y2="11.4494" gradientUnits="userSpaceOnUse">
<stop stop-color="#FFA981" stop-opacity="0"/>
<stop offset="1" stop-color="#B82934"/>
</linearGradient>
<linearGradient id="paint88_linear" x1="41.6779" y1="15.8184" x2="35.751" y2="9.89179" gradientUnits="userSpaceOnUse">
<stop stop-color="#FFA981" stop-opacity="0"/>
<stop offset="1" stop-color="#B82934"/>
</linearGradient>
<linearGradient id="paint89_linear" x1="35.4719" y1="10.0228" x2="36.8456" y2="9.3208" gradientUnits="userSpaceOnUse">
<stop stop-color="#FEFFB3"/>
<stop offset="1" stop-color="#FFCD77"/>
</linearGradient>
<radialGradient id="paint90_radial" cx="0" cy="0" r="1" gradientUnits="userSpaceOnUse" gradientTransform="translate(34.5537 6.44499) scale(1.10752)">
<stop stop-color="#FEFFB3"/>
<stop offset="0.193" stop-color="#FEF296"/>
<stop offset="0.609" stop-color="#FFD14B"/>
<stop offset="1" stop-color="#FFAF00"/>
</radialGradient>
<radialGradient id="paint91_radial" cx="0" cy="0" r="1" gradientUnits="userSpaceOnUse" gradientTransform="translate(34.8711 7.54714) scale(0.549939)">
<stop stop-color="#FEFFB3"/>
<stop offset="0.193" stop-color="#FEF296"/>
<stop offset="0.609" stop-color="#FFD14B"/>
<stop offset="1" stop-color="#FFAF00"/>
</radialGradient>
<radialGradient id="paint92_radial" cx="0" cy="0" r="1" gradientUnits="userSpaceOnUse" gradientTransform="translate(35.6005 7.44144) scale(0.549939)">
<stop stop-color="#FEFFB3"/>
<stop offset="0.193" stop-color="#FEF296"/>
<stop offset="0.609" stop-color="#FFD14B"/>
<stop offset="1" stop-color="#FFAF00"/>
</radialGradient>
<radialGradient id="paint93_radial" cx="0" cy="0" r="1" gradientUnits="userSpaceOnUse" gradientTransform="translate(35.2939 8.24514) scale(0.549939)">
<stop stop-color="#FEFFB3"/>
<stop offset="0.193" stop-color="#FEF296"/>
<stop offset="0.609" stop-color="#FFD14B"/>
<stop offset="1" stop-color="#FFAF00"/>
</radialGradient>
<radialGradient id="paint94_radial" cx="0" cy="0" r="1" gradientUnits="userSpaceOnUse" gradientTransform="translate(36.0026 8.37208) scale(0.549939)">
<stop stop-color="#FEFFB3"/>
<stop offset="0.193" stop-color="#FEF296"/>
<stop offset="0.609" stop-color="#FFD14B"/>
<stop offset="1" stop-color="#FFAF00"/>
</radialGradient>
<clipPath id="clip0">
<rect width="28" height="28" fill="white" transform="translate(192.573 10) rotate(31.3628)"/>
</clipPath>
</defs>
</svg>
