<svg width="141" height="112" viewBox="0 0 141 112" fill="none" xmlns="http://www.w3.org/2000/svg">
<g clip-path="url(#clip0)">
<path d="M-12.6648 23.3952C-12.6648 23.3952 -16.1238 0.0807874 18.5943 -41.747C18.5939 -41.7473 1.86797 0.327053 -12.6648 23.3952Z" fill="url(#paint0_linear)"/>
<path d="M-12.6653 23.3952C1.86726 0.327238 18.5938 -41.7471 18.5938 -41.7471C18.5938 -41.7471 -9.16103 4.21394 -12.6653 23.3952Z" fill="url(#paint1_linear)"/>
<path d="M52.5441 4.72541C52.5441 4.72541 64.5648 20.8103 110.825 21.1461C110.825 21.1461 75.2721 8.12643 52.5441 4.72541Z" fill="url(#paint2_linear)"/>
<path d="M52.5441 4.7254C75.2721 8.12643 110.825 21.1461 110.825 21.1461C110.825 21.1461 66.2657 13.5332 52.5441 4.7254Z" fill="url(#paint3_linear)"/>
<path d="M-11.7025 26.8656C-11.7025 26.8656 -7.04712 44.1287 29.2467 59.2905C29.2465 59.2907 5.16294 37.0099 -11.7025 26.8656Z" fill="url(#paint4_linear)"/>
<path d="M-11.7025 26.8658C5.16307 37.0099 29.2466 59.2907 29.2466 59.2907C29.2466 59.2907 -3.53664 38.6156 -11.7025 26.8658Z" fill="url(#paint5_linear)"/>
<path d="M65.3035 3.95751C65.3035 3.95751 84.185 -4.2522 132.279 14.2384C132.279 14.2384 90.2241 10.4097 65.3035 3.95751Z" fill="url(#paint6_linear)"/>
<path d="M65.3035 3.95751C90.2241 10.4097 132.279 14.2384 132.279 14.2384C132.279 14.2384 83.0445 2.35787 65.3035 3.95751Z" fill="url(#paint7_linear)"/>
<path d="M-0.666205 16.3354C-0.666205 16.3354 8.09987 -33.9257 47.4848 -46.7551C47.4846 -46.7552 21.196 -31.1003 -0.666205 16.3354Z" fill="url(#paint8_linear)"/>
<path d="M47.4846 -46.7551C47.452 -46.7444 47.42 -46.7322 47.3872 -46.7216C45.5205 -46.0634 16.7064 -35.1584 -0.666596 16.3356C21.1959 -31.1002 47.4846 -46.7551 47.4846 -46.7551Z" fill="url(#paint9_linear)"/>
<path d="M9.93647 11.5272C9.93647 11.5272 33.0154 -27.1567 63.6468 -42.2417C63.6466 -42.2415 22.2412 -37.0992 9.93647 11.5272Z" fill="url(#paint10_linear)"/>
<path d="M63.6466 -42.2414C63.6466 -42.2414 30.1493 -34.777 9.93649 11.5273C9.93649 11.5273 33.0157 -27.1566 63.6466 -42.2414Z" fill="url(#paint11_linear)"/>
<path d="M20.9323 7.7345C20.9323 7.7345 35.9898 -35.6921 78.3648 -32.6605C78.3652 -32.6602 46.9286 -27.4069 20.9323 7.7345Z" fill="url(#paint12_linear)"/>
<path d="M78.3647 -32.6602C42.472 -31.5696 20.9318 7.73447 20.9318 7.73447C46.9281 -27.4069 78.3647 -32.6602 78.3647 -32.6602Z" fill="url(#paint13_linear)"/>
<path d="M31.941 4.7867C31.941 4.7867 56.8114 -19.9929 90.1711 -25.1605C90.171 -25.1608 52.5113 -31.1854 31.941 4.7867Z" fill="url(#paint14_linear)"/>
<path d="M90.171 -25.1609C53.3292 -24.7518 31.9411 4.78638 31.9411 4.78638C31.9411 4.78638 56.8114 -19.993 90.171 -25.1609Z" fill="url(#paint15_linear)"/>
<path d="M43.3096 3.26015C43.3096 3.26015 74.2914 -29.9841 105.507 -12.5655C105.507 -12.5655 72.6383 -20.2112 43.3096 3.26015Z" fill="url(#paint16_linear)"/>
<path d="M105.507 -12.5655C69.7771 -24.4589 43.3096 3.26015 43.3096 3.26015C72.6383 -20.2112 105.507 -12.5655 105.507 -12.5655Z" fill="url(#paint17_linear)"/>
<path d="M54.7049 2.74169C54.7049 2.74169 76.2511 -19.6799 109.507 -0.701312C109.507 -0.701312 75.9461 -8.03638 54.7049 2.74169Z" fill="url(#paint18_linear)"/>
<path d="M109.507 -0.70121C77.8661 -13.3067 54.7049 2.74194 54.7049 2.74194C75.9457 -8.03605 109.507 -0.70121 109.507 -0.70121Z" fill="url(#paint19_linear)"/>
<path d="M-0.299674 20.0648C-0.299674 20.0648 23.4547 47.7622 52.3654 51.6091C52.3656 51.6092 14.3862 60.2514 -0.299674 20.0648Z" fill="url(#paint20_linear)"/>
<path d="M52.3654 51.6093C52.3654 51.6093 21.4014 55.6014 -0.299674 20.0651C-0.299893 20.0649 23.4547 47.7625 52.3654 51.6093Z" fill="url(#paint21_linear)"/>
<path d="M9.54872 14.8856C9.54872 14.8856 25.6857 56.0054 67.6661 47.1233C67.6658 47.1234 36.3168 46.2485 9.54872 14.8856Z" fill="url(#paint22_linear)"/>
<path d="M67.6652 47.1233C32.0065 51.0065 9.54774 14.8856 9.54774 14.8856C36.3161 46.2484 67.6652 47.1233 67.6652 47.1233Z" fill="url(#paint23_linear)"/>
<path d="M31.6931 7.54295C31.6931 7.54295 55.4521 31.0282 88.6141 34.4255C88.6138 34.4254 50.6303 42.4632 31.6931 7.54295Z" fill="url(#paint24_linear)"/>
<path d="M88.6139 34.4254C51.7457 35.9779 31.6931 7.54296 31.6931 7.54296C31.6931 7.54296 55.4518 31.0281 88.6139 34.4254Z" fill="url(#paint25_linear)"/>
<path d="M40.2386 5.62316C40.2386 5.62316 69.7452 40.6261 103.749 24.2057C103.749 24.206 68.8421 30.6376 40.2386 5.62316Z" fill="url(#paint26_linear)"/>
<path d="M103.748 24.2062C65.5021 34.8343 40.2376 5.62365 40.2376 5.62365C68.8414 30.6377 103.748 24.2062 103.748 24.2062Z" fill="url(#paint27_linear)"/>
<path d="M20.5812 10.6045C20.5812 10.6045 28.911 41.538 76.9882 43.4868C76.9883 43.4866 36.237 31.4198 20.5812 10.6045Z" fill="url(#paint28_linear)"/>
<path d="M76.9884 43.4867C34.8287 36.9734 20.581 10.6045 20.581 10.6045C36.2371 31.4199 76.9884 43.4867 76.9884 43.4867Z" fill="url(#paint29_linear)"/>
<path d="M65.3032 3.9575C65.3032 3.9575 19.1536 -7.25825 -36.9049 40.3255C-36.9049 40.3255 -27.948 37.7881 -14.384 28.3986C8.7406 12.3914 36.7827 3.14442 65.3032 3.9575Z" fill="url(#paint30_linear)"/>
<path d="M65.3032 3.9575C12.8164 -1.23556 -36.0271 39.5882 -36.8921 40.3148C-36.8964 40.3184 -36.9006 40.3219 -36.9048 40.3253C-36.9048 40.3253 -27.9479 37.7878 -14.3838 28.3984C8.7406 12.3914 36.7827 3.14442 65.3032 3.9575Z" fill="url(#paint31_linear)"/>
<path d="M30.0386 65.212C30.0386 65.212 66.5097 73.3212 83.6527 55.3097C83.6527 55.3097 61.4836 68.7749 30.0386 65.212Z" fill="url(#paint32_linear)"/>
<path d="M83.6527 55.3097C60.9333 71.7893 30.0386 65.212 30.0386 65.212C61.4836 68.7749 83.6527 55.3097 83.6527 55.3097Z" fill="url(#paint33_linear)"/>
<path d="M36.7563 65.9464C36.7563 65.9464 77.0098 73.5698 95.1738 53.2353C95.1737 53.2356 71.3436 68.7618 36.7563 65.9464Z" fill="url(#paint34_linear)"/>
<path d="M95.1738 53.2356C70.8446 72.0843 36.7563 65.9466 36.7563 65.9466C71.3437 68.7618 95.1738 53.2356 95.1738 53.2356Z" fill="url(#paint35_linear)"/>
<path d="M104.598 51.9894C102.075 53.3491 99.5368 54.6757 96.9311 55.8588C96.2805 56.156 95.6358 56.4651 94.9827 56.7552L93.0114 57.5994L92.026 58.0206L91.0286 58.4132L89.0353 59.1981C86.3535 60.1795 83.6604 61.1283 80.9157 61.9043C79.5543 62.3268 78.1663 62.658 76.7921 63.0308L74.7124 63.52L73.6727 63.7625L72.6265 63.976C67.0578 65.1615 61.4012 65.8817 55.7305 66.1826C52.8949 66.3409 50.0546 66.371 47.2182 66.3214C44.3811 66.2696 41.5482 66.0838 38.7246 65.8241C33.078 65.2814 27.4815 64.2934 21.9777 62.9578C16.4741 61.6185 11.0361 60.0349 5.66265 58.2276C0.290678 56.4164 -5.01024 54.3614 -10.2152 52.0512C-12.8147 50.891 -15.4002 49.6863 -17.9518 48.4032C-20.5095 47.1332 -23.0404 45.7902 -25.5231 44.3603L-25.7286 44.6419C-23.5224 46.5216 -21.1544 48.1789 -18.7475 49.7834C-17.5371 50.5741 -16.309 51.3379 -15.0725 52.0904C-13.8331 52.8375 -12.5727 53.5488 -11.3053 54.2489C-6.22809 57.0354 -0.945283 59.4688 4.49157 61.513C9.92817 63.5576 15.533 65.1748 21.2315 66.3294C24.0829 66.8971 26.953 67.3639 29.8323 67.7462C32.7107 68.1345 35.6014 68.4304 38.4993 68.6055C41.3958 68.7922 44.2971 68.9027 47.1989 68.8763C50.0998 68.8481 52.9995 68.7372 55.8888 68.4966C61.6651 67.996 67.4004 67.069 73.0154 65.6758L74.0687 65.4179L75.1145 65.1305L77.204 64.5527C78.5834 64.1206 79.9747 63.7306 81.3368 63.2492C84.0836 62.3559 86.7688 61.291 89.4344 60.1961L91.4141 59.3265L92.4033 58.8918L93.3796 58.4286L95.3306 57.5017C95.9765 57.1838 96.6145 56.8493 97.2552 56.5225C99.8198 55.2149 102.308 53.7669 104.772 52.2909L104.598 51.9894Z" fill="url(#paint36_linear)"/>
<path d="M-25.5224 44.3606C-23.0399 45.7904 -20.5089 47.1332 -17.9511 48.4036C-15.3997 49.6865 -12.8142 50.8912 -10.2144 52.0515C-5.00986 54.3619 0.291621 56.4169 5.66337 58.228C11.0368 60.0353 16.4748 61.6188 21.9784 62.9582C27.4821 64.294 33.0787 65.2817 38.7253 65.8245C41.5489 66.0842 44.3815 66.2701 47.2189 66.3218C50.0554 66.3711 52.8957 66.3411 55.731 66.1831C61.4018 65.8823 67.0584 65.162 72.627 63.9765L73.6732 63.7631L74.713 63.5205L76.7927 63.0314C78.167 62.6583 79.5545 62.3275 80.9164 61.9046C83.6613 61.1287 86.354 60.1797 89.036 59.1985L91.0293 58.4135L92.0267 58.0209L93.0121 57.5997L94.9834 56.7556C95.6368 56.4656 96.2813 56.1567 96.9318 55.8592C99.5376 54.6764 102.076 53.3491 104.599 51.9898C104.598 51.9895 46.594 92.258 -25.5224 44.3606Z" fill="url(#paint37_linear)"/>
<path d="M19.1907 66.0246C19.1907 66.0246 51.4055 79.321 81.4391 73.9746C81.4395 73.9745 53.1012 89.8039 19.1907 66.0246Z" fill="url(#paint38_linear)"/>
<path d="M81.4391 73.9746C50.7573 84.255 19.1907 66.0245 19.1907 66.0245C19.1907 66.0245 51.4054 79.3213 81.4391 73.9746Z" fill="url(#paint39_linear)"/>
<path d="M31.8908 67.9627C31.8908 67.9627 66.0453 74.8959 94.5158 63.9398C94.516 63.9399 69.7015 84.8658 31.8908 67.9627Z" fill="url(#paint40_linear)"/>
<path d="M94.5158 63.94C66.3464 79.8632 31.8908 67.963 31.8908 67.963C31.8908 67.963 66.0451 74.896 94.5158 63.94Z" fill="url(#paint41_linear)"/>
<path d="M47.6757 68.7703C47.6757 68.7703 81.1178 67.0748 104.146 54.8744C104.146 54.8744 87.3714 72.8405 47.6757 68.7703Z" fill="url(#paint42_linear)"/>
<path d="M104.146 54.8744C82.834 70.2219 47.6757 68.7703 47.6757 68.7703C47.6757 68.7703 81.1181 67.0747 104.146 54.8744Z" fill="url(#paint43_linear)"/>
</g>
<defs>
<linearGradient id="paint0_linear" x1="10.6521" y1="-34.7782" x2="-12.1659" y2="25.9313" gradientUnits="userSpaceOnUse">
<stop offset="0.003" stop-color="#FFE000"/>
<stop offset="0.142" stop-color="#DCDE00"/>
<stop offset="0.274" stop-color="#C3DD00"/>
<stop offset="0.393" stop-color="#B4DC00"/>
<stop offset="0.491" stop-color="#AFDC00"/>
<stop offset="0.715" stop-color="#AEDA00"/>
<stop offset="0.796" stop-color="#A8D300"/>
<stop offset="0.854" stop-color="#9FC800"/>
<stop offset="0.901" stop-color="#91B700"/>
<stop offset="0.941" stop-color="#80A100"/>
<stop offset="0.975" stop-color="#6B8600"/>
<stop offset="1" stop-color="#586E00"/>
</linearGradient>
<linearGradient id="paint1_linear" x1="10.3196" y1="-6.40989" x2="-7.31522" y2="-13.038" gradientUnits="userSpaceOnUse">
<stop stop-color="#AFDC00" stop-opacity="0"/>
<stop offset="0.472" stop-color="#84A600" stop-opacity="0.472"/>
<stop offset="1" stop-color="#586E00"/>
</linearGradient>
<linearGradient id="paint2_linear" x1="101.821" y1="22.573" x2="51.6887" y2="1.96958" gradientUnits="userSpaceOnUse">
<stop offset="0.003" stop-color="#FFE000"/>
<stop offset="0.142" stop-color="#DCDE00"/>
<stop offset="0.274" stop-color="#C3DD00"/>
<stop offset="0.393" stop-color="#B4DC00"/>
<stop offset="0.491" stop-color="#AFDC00"/>
<stop offset="0.715" stop-color="#AEDA00"/>
<stop offset="0.796" stop-color="#A8D300"/>
<stop offset="0.854" stop-color="#9FC800"/>
<stop offset="0.901" stop-color="#91B700"/>
<stop offset="0.941" stop-color="#80A100"/>
<stop offset="0.975" stop-color="#6B8600"/>
<stop offset="1" stop-color="#586E00"/>
</linearGradient>
<linearGradient id="paint3_linear" x1="84.4273" y1="6.25315" x2="78.1498" y2="22.4005" gradientUnits="userSpaceOnUse">
<stop stop-color="#AFDC00" stop-opacity="0"/>
<stop offset="0.472" stop-color="#84A600" stop-opacity="0.472"/>
<stop offset="1" stop-color="#586E00"/>
</linearGradient>
<linearGradient id="paint4_linear" x1="21.8459" y1="57.3679" x2="-12.6598" y2="25.5546" gradientUnits="userSpaceOnUse">
<stop offset="0.003" stop-color="#FFE000"/>
<stop offset="0.142" stop-color="#DCDE00"/>
<stop offset="0.274" stop-color="#C3DD00"/>
<stop offset="0.393" stop-color="#B4DC00"/>
<stop offset="0.491" stop-color="#AFDC00"/>
<stop offset="0.715" stop-color="#AEDA00"/>
<stop offset="0.796" stop-color="#A8D300"/>
<stop offset="0.854" stop-color="#9FC800"/>
<stop offset="0.901" stop-color="#91B700"/>
<stop offset="0.941" stop-color="#80A100"/>
<stop offset="0.975" stop-color="#6B8600"/>
<stop offset="1" stop-color="#586E00"/>
</linearGradient>
<linearGradient id="paint5_linear" x1="12.2336" y1="39.3219" x2="3.69478" y2="48.5737" gradientUnits="userSpaceOnUse">
<stop stop-color="#AFDC00" stop-opacity="0"/>
<stop offset="0.472" stop-color="#84A600" stop-opacity="0.472"/>
<stop offset="1" stop-color="#586E00"/>
</linearGradient>
<linearGradient id="paint6_linear" x1="123.726" y1="8.68531" x2="63.1626" y2="6.98362" gradientUnits="userSpaceOnUse">
<stop offset="0.003" stop-color="#FFE000"/>
<stop offset="0.142" stop-color="#DCDE00"/>
<stop offset="0.274" stop-color="#C3DD00"/>
<stop offset="0.393" stop-color="#B4DC00"/>
<stop offset="0.491" stop-color="#AFDC00"/>
<stop offset="0.715" stop-color="#AEDA00"/>
<stop offset="0.796" stop-color="#A8D300"/>
<stop offset="0.854" stop-color="#9FC800"/>
<stop offset="0.901" stop-color="#91B700"/>
<stop offset="0.941" stop-color="#80A100"/>
<stop offset="0.975" stop-color="#6B8600"/>
<stop offset="1" stop-color="#586E00"/>
</linearGradient>
<linearGradient id="paint7_linear" x1="98.5098" y1="19.0303" x2="99.1564" y2="-4.02269" gradientUnits="userSpaceOnUse">
<stop stop-color="#AFDC00" stop-opacity="0"/>
<stop offset="0.472" stop-color="#84A600" stop-opacity="0.472"/>
<stop offset="1" stop-color="#586E00"/>
</linearGradient>
<linearGradient id="paint8_linear" x1="31.9864" y1="-36.9283" x2="-1.13874" y2="33.2526" gradientUnits="userSpaceOnUse">
<stop offset="0.003" stop-color="#FFE000"/>
<stop offset="0.142" stop-color="#DCDE00"/>
<stop offset="0.274" stop-color="#C3DD00"/>
<stop offset="0.393" stop-color="#B4DC00"/>
<stop offset="0.491" stop-color="#AFDC00"/>
<stop offset="0.556" stop-color="#A1CA00"/>
<stop offset="0.759" stop-color="#7A9900"/>
<stop offset="0.914" stop-color="#617A00"/>
<stop offset="1" stop-color="#586E00"/>
</linearGradient>
<linearGradient id="paint9_linear" x1="22.6636" y1="-15.8036" x2="11.7944" y2="-24.4993" gradientUnits="userSpaceOnUse">
<stop stop-color="#AFDC00" stop-opacity="0"/>
<stop offset="0.472" stop-color="#84A600" stop-opacity="0.472"/>
<stop offset="1" stop-color="#586E00"/>
</linearGradient>
<linearGradient id="paint10_linear" x1="49.7075" y1="-39.1138" x2="8.64736" y2="22.3396" gradientUnits="userSpaceOnUse">
<stop offset="0.003" stop-color="#FFE000"/>
<stop offset="0.142" stop-color="#DCDE00"/>
<stop offset="0.274" stop-color="#C3DD00"/>
<stop offset="0.393" stop-color="#B4DC00"/>
<stop offset="0.491" stop-color="#AFDC00"/>
<stop offset="0.556" stop-color="#A1CA00"/>
<stop offset="0.759" stop-color="#7A9900"/>
<stop offset="0.914" stop-color="#617A00"/>
<stop offset="1" stop-color="#586E00"/>
</linearGradient>
<linearGradient id="paint11_linear" x1="40.3094" y1="-12.6049" x2="22.5199" y2="-26.5103" gradientUnits="userSpaceOnUse">
<stop stop-color="#AFDC00" stop-opacity="0"/>
<stop offset="0.472" stop-color="#84A600" stop-opacity="0.472"/>
<stop offset="1" stop-color="#586E00"/>
</linearGradient>
<linearGradient id="paint12_linear" x1="67.2987" y1="-35.9328" x2="23.1642" y2="14.3417" gradientUnits="userSpaceOnUse">
<stop offset="0.003" stop-color="#FFE000"/>
<stop offset="0.142" stop-color="#DCDE00"/>
<stop offset="0.274" stop-color="#C3DD00"/>
<stop offset="0.393" stop-color="#B4DC00"/>
<stop offset="0.491" stop-color="#AFDC00"/>
<stop offset="0.556" stop-color="#A1CA00"/>
<stop offset="0.759" stop-color="#7A9900"/>
<stop offset="0.914" stop-color="#617A00"/>
<stop offset="1" stop-color="#586E00"/>
</linearGradient>
<linearGradient id="paint13_linear" x1="57.5002" y1="-6.32214" x2="28.7166" y2="-28.8221" gradientUnits="userSpaceOnUse">
<stop stop-color="#AFDC00" stop-opacity="0"/>
<stop offset="0.472" stop-color="#84A600" stop-opacity="0.472"/>
<stop offset="1" stop-color="#586E00"/>
</linearGradient>
<linearGradient id="paint14_linear" x1="85.8741" y1="-40.157" x2="33.0357" y2="21.7053" gradientUnits="userSpaceOnUse">
<stop offset="0.003" stop-color="#FFE000"/>
<stop offset="0.142" stop-color="#DCDE00"/>
<stop offset="0.274" stop-color="#C3DD00"/>
<stop offset="0.393" stop-color="#B4DC00"/>
<stop offset="0.491" stop-color="#AFDC00"/>
<stop offset="0.556" stop-color="#A1CA00"/>
<stop offset="0.759" stop-color="#7A9900"/>
<stop offset="0.914" stop-color="#617A00"/>
<stop offset="1" stop-color="#586E00"/>
</linearGradient>
<linearGradient id="paint15_linear" x1="71.6393" y1="-1.91039" x2="34.4276" y2="-31.002" gradientUnits="userSpaceOnUse">
<stop stop-color="#AFDC00" stop-opacity="0"/>
<stop offset="0.472" stop-color="#84A600" stop-opacity="0.472"/>
<stop offset="1" stop-color="#586E00"/>
</linearGradient>
<linearGradient id="paint16_linear" x1="98.0174" y1="-26.8445" x2="44.6373" y2="23.219" gradientUnits="userSpaceOnUse">
<stop offset="0.003" stop-color="#FFE000"/>
<stop offset="0.142" stop-color="#DCDE00"/>
<stop offset="0.274" stop-color="#C3DD00"/>
<stop offset="0.393" stop-color="#B4DC00"/>
<stop offset="0.491" stop-color="#AFDC00"/>
<stop offset="0.556" stop-color="#A1CA00"/>
<stop offset="0.759" stop-color="#7A9900"/>
<stop offset="0.914" stop-color="#617A00"/>
<stop offset="1" stop-color="#586E00"/>
</linearGradient>
<linearGradient id="paint17_linear" x1="89.5556" y1="7.19172" x2="36.3217" y2="-34.4247" gradientUnits="userSpaceOnUse">
<stop stop-color="#AFDC00" stop-opacity="0"/>
<stop offset="0.472" stop-color="#84A600" stop-opacity="0.472"/>
<stop offset="1" stop-color="#586E00"/>
</linearGradient>
<linearGradient id="paint18_linear" x1="95.2416" y1="-6.86972" x2="46.9719" y2="19.5333" gradientUnits="userSpaceOnUse">
<stop offset="0.003" stop-color="#FFE000"/>
<stop offset="0.142" stop-color="#DCDE00"/>
<stop offset="0.274" stop-color="#C3DD00"/>
<stop offset="0.393" stop-color="#B4DC00"/>
<stop offset="0.491" stop-color="#AFDC00"/>
<stop offset="0.556" stop-color="#A1CA00"/>
<stop offset="0.759" stop-color="#7A9900"/>
<stop offset="0.914" stop-color="#617A00"/>
<stop offset="1" stop-color="#586E00"/>
</linearGradient>
<linearGradient id="paint19_linear" x1="97.9477" y1="13.4077" x2="42.2712" y2="-30.1183" gradientUnits="userSpaceOnUse">
<stop stop-color="#AFDC00" stop-opacity="0"/>
<stop offset="0.472" stop-color="#84A600" stop-opacity="0.472"/>
<stop offset="1" stop-color="#586E00"/>
</linearGradient>
<linearGradient id="paint20_linear" x1="39.5268" y1="52.9304" x2="-2.98777" y2="11.6622" gradientUnits="userSpaceOnUse">
<stop offset="0.003" stop-color="#FFE000"/>
<stop offset="0.142" stop-color="#DCDE00"/>
<stop offset="0.274" stop-color="#C3DD00"/>
<stop offset="0.393" stop-color="#B4DC00"/>
<stop offset="0.491" stop-color="#AFDC00"/>
<stop offset="0.556" stop-color="#A1CA00"/>
<stop offset="0.759" stop-color="#7A9900"/>
<stop offset="0.914" stop-color="#617A00"/>
<stop offset="1" stop-color="#586E00"/>
</linearGradient>
<linearGradient id="paint21_linear" x1="29.0052" y1="32.2774" x2="13.8429" y2="50.4278" gradientUnits="userSpaceOnUse">
<stop stop-color="#AFDC00" stop-opacity="0"/>
<stop offset="0.472" stop-color="#84A600" stop-opacity="0.472"/>
<stop offset="1" stop-color="#586E00"/>
</linearGradient>
<linearGradient id="paint22_linear" x1="56.7774" y1="51.8471" x2="11.4982" y2="8.13646" gradientUnits="userSpaceOnUse">
<stop offset="0.003" stop-color="#FFE000"/>
<stop offset="0.142" stop-color="#DCDE00"/>
<stop offset="0.274" stop-color="#C3DD00"/>
<stop offset="0.393" stop-color="#B4DC00"/>
<stop offset="0.491" stop-color="#AFDC00"/>
<stop offset="0.556" stop-color="#A1CA00"/>
<stop offset="0.759" stop-color="#7A9900"/>
<stop offset="0.914" stop-color="#617A00"/>
<stop offset="1" stop-color="#586E00"/>
</linearGradient>
<linearGradient id="paint23_linear" x1="46.0783" y1="24.0975" x2="18.4916" y2="49.5944" gradientUnits="userSpaceOnUse">
<stop stop-color="#AFDC00" stop-opacity="0"/>
<stop offset="0.472" stop-color="#84A600" stop-opacity="0.472"/>
<stop offset="1" stop-color="#586E00"/>
</linearGradient>
<linearGradient id="paint24_linear" x1="83.7014" y1="49.4187" x2="33.4053" y2="-9.12823" gradientUnits="userSpaceOnUse">
<stop offset="0.003" stop-color="#FFE000"/>
<stop offset="0.142" stop-color="#DCDE00"/>
<stop offset="0.274" stop-color="#C3DD00"/>
<stop offset="0.393" stop-color="#B4DC00"/>
<stop offset="0.491" stop-color="#AFDC00"/>
<stop offset="0.556" stop-color="#A1CA00"/>
<stop offset="0.759" stop-color="#7A9900"/>
<stop offset="0.914" stop-color="#617A00"/>
<stop offset="1" stop-color="#586E00"/>
</linearGradient>
<linearGradient id="paint25_linear" x1="70.981" y1="12.4673" x2="32.8977" y2="42.4192" gradientUnits="userSpaceOnUse">
<stop stop-color="#AFDC00" stop-opacity="0"/>
<stop offset="0.472" stop-color="#84A600" stop-opacity="0.472"/>
<stop offset="1" stop-color="#586E00"/>
</linearGradient>
<linearGradient id="paint26_linear" x1="94.6029" y1="38.8719" x2="43.5028" y2="-15.2001" gradientUnits="userSpaceOnUse">
<stop offset="0.003" stop-color="#FFE000"/>
<stop offset="0.142" stop-color="#DCDE00"/>
<stop offset="0.274" stop-color="#C3DD00"/>
<stop offset="0.393" stop-color="#B4DC00"/>
<stop offset="0.491" stop-color="#AFDC00"/>
<stop offset="0.556" stop-color="#A1CA00"/>
<stop offset="0.759" stop-color="#7A9900"/>
<stop offset="0.914" stop-color="#617A00"/>
<stop offset="1" stop-color="#586E00"/>
</linearGradient>
<linearGradient id="paint27_linear" x1="88.8369" y1="3.30989" x2="29.6397" y2="44.0909" gradientUnits="userSpaceOnUse">
<stop stop-color="#AFDC00" stop-opacity="0"/>
<stop offset="0.472" stop-color="#84A600" stop-opacity="0.472"/>
<stop offset="1" stop-color="#586E00"/>
</linearGradient>
<linearGradient id="paint28_linear" x1="57.0292" y1="42.3108" x2="26.4331" y2="-11.989" gradientUnits="userSpaceOnUse">
<stop offset="0.003" stop-color="#FFE000"/>
<stop offset="0.142" stop-color="#DCDE00"/>
<stop offset="0.274" stop-color="#C3DD00"/>
<stop offset="0.393" stop-color="#B4DC00"/>
<stop offset="0.491" stop-color="#AFDC00"/>
<stop offset="0.556" stop-color="#A1CA00"/>
<stop offset="0.759" stop-color="#7A9900"/>
<stop offset="0.914" stop-color="#617A00"/>
<stop offset="1" stop-color="#586E00"/>
</linearGradient>
<linearGradient id="paint29_linear" x1="74.4034" y1="24.3096" x2="-15.625" y2="33.9251" gradientUnits="userSpaceOnUse">
<stop stop-color="#AFDC00" stop-opacity="0"/>
<stop offset="0.472" stop-color="#84A600" stop-opacity="0.472"/>
<stop offset="1" stop-color="#586E00"/>
</linearGradient>
<linearGradient id="paint30_linear" x1="93.4334" y1="15.9183" x2="-34.4268" y2="24.1955" gradientUnits="userSpaceOnUse">
<stop offset="0.003" stop-color="#FFE000"/>
<stop offset="0.142" stop-color="#DCDE00"/>
<stop offset="0.274" stop-color="#C3DD00"/>
<stop offset="0.393" stop-color="#B4DC00"/>
<stop offset="0.491" stop-color="#AFDC00"/>
<stop offset="0.715" stop-color="#AEDA00"/>
<stop offset="0.796" stop-color="#A8D300"/>
<stop offset="0.854" stop-color="#9FC800"/>
<stop offset="0.901" stop-color="#91B700"/>
<stop offset="0.941" stop-color="#80A100"/>
<stop offset="0.975" stop-color="#6B8600"/>
<stop offset="1" stop-color="#586E00"/>
</linearGradient>
<linearGradient id="paint31_linear" x1="36.2678" y1="49.4953" x2="-16.08" y2="-15.3845" gradientUnits="userSpaceOnUse">
<stop stop-color="#AFDC00" stop-opacity="0"/>
<stop offset="0.472" stop-color="#84A600" stop-opacity="0.472"/>
<stop offset="1" stop-color="#586E00"/>
</linearGradient>
<linearGradient id="paint32_linear" x1="84.2346" y1="67.6378" x2="22.3724" y2="50.9765" gradientUnits="userSpaceOnUse">
<stop offset="0.003" stop-color="#FFE000"/>
<stop offset="0.142" stop-color="#DCDE00"/>
<stop offset="0.274" stop-color="#C3DD00"/>
<stop offset="0.393" stop-color="#B4DC00"/>
<stop offset="0.491" stop-color="#AFDC00"/>
<stop offset="0.556" stop-color="#A1CA00"/>
<stop offset="0.759" stop-color="#7A9900"/>
<stop offset="0.914" stop-color="#617A00"/>
<stop offset="1" stop-color="#586E00"/>
</linearGradient>
<linearGradient id="paint33_linear" x1="62.9483" y1="46.4802" x2="41.4959" y2="94.906" gradientUnits="userSpaceOnUse">
<stop stop-color="#AFDC00" stop-opacity="0"/>
<stop offset="0.472" stop-color="#84A600" stop-opacity="0.472"/>
<stop offset="1" stop-color="#586E00"/>
</linearGradient>
<linearGradient id="paint34_linear" x1="96.2403" y1="66.7266" x2="27.8606" y2="50.6101" gradientUnits="userSpaceOnUse">
<stop offset="0.003" stop-color="#FFE000"/>
<stop offset="0.142" stop-color="#DCDE00"/>
<stop offset="0.274" stop-color="#C3DD00"/>
<stop offset="0.393" stop-color="#B4DC00"/>
<stop offset="0.491" stop-color="#AFDC00"/>
<stop offset="0.556" stop-color="#A1CA00"/>
<stop offset="0.759" stop-color="#7A9900"/>
<stop offset="0.914" stop-color="#617A00"/>
<stop offset="1" stop-color="#586E00"/>
</linearGradient>
<linearGradient id="paint35_linear" x1="72.1751" y1="44.2751" x2="50.3463" y2="98.0917" gradientUnits="userSpaceOnUse">
<stop stop-color="#AFDC00" stop-opacity="0"/>
<stop offset="0.472" stop-color="#84A600" stop-opacity="0.472"/>
<stop offset="1" stop-color="#586E00"/>
</linearGradient>
<linearGradient id="paint36_linear" x1="14.1462" y1="79.381" x2="64.3106" y2="18.2323" gradientUnits="userSpaceOnUse">
<stop stop-color="#586E00"/>
<stop offset="0.025" stop-color="#6B8600"/>
<stop offset="0.059" stop-color="#80A100"/>
<stop offset="0.099" stop-color="#91B700"/>
<stop offset="0.146" stop-color="#9FC800"/>
<stop offset="0.204" stop-color="#A8D300"/>
<stop offset="0.285" stop-color="#AEDA00"/>
<stop offset="0.509" stop-color="#AFDC00"/>
<stop offset="0.607" stop-color="#B4DC00"/>
<stop offset="0.727" stop-color="#C3DD00"/>
<stop offset="0.858" stop-color="#DCDE00"/>
<stop offset="0.998" stop-color="#FFE000"/>
</linearGradient>
<linearGradient id="paint37_linear" x1="38.5361" y1="38.038" x2="42.9722" y2="82.984" gradientUnits="userSpaceOnUse">
<stop stop-color="#AFDC00" stop-opacity="0"/>
<stop offset="0.472" stop-color="#84A600" stop-opacity="0.472"/>
<stop offset="1" stop-color="#586E00"/>
</linearGradient>
<linearGradient id="paint38_linear" x1="84.892" y1="86.7419" x2="12.0264" y2="52.9508" gradientUnits="userSpaceOnUse">
<stop offset="0.003" stop-color="#FFE000"/>
<stop offset="0.142" stop-color="#DCDE00"/>
<stop offset="0.274" stop-color="#C3DD00"/>
<stop offset="0.393" stop-color="#B4DC00"/>
<stop offset="0.491" stop-color="#AFDC00"/>
<stop offset="0.556" stop-color="#A1CA00"/>
<stop offset="0.759" stop-color="#7A9900"/>
<stop offset="0.914" stop-color="#617A00"/>
<stop offset="1" stop-color="#586E00"/>
</linearGradient>
<linearGradient id="paint39_linear" x1="55.165" y1="60.6226" x2="38.0939" y2="93.6108" gradientUnits="userSpaceOnUse">
<stop stop-color="#AFDC00" stop-opacity="0"/>
<stop offset="0.472" stop-color="#84A600" stop-opacity="0.472"/>
<stop offset="1" stop-color="#586E00"/>
</linearGradient>
<linearGradient id="paint40_linear" x1="100.331" y1="75.8196" x2="22.3735" y2="56.4864" gradientUnits="userSpaceOnUse">
<stop offset="0.003" stop-color="#FFE000"/>
<stop offset="0.142" stop-color="#DCDE00"/>
<stop offset="0.274" stop-color="#C3DD00"/>
<stop offset="0.393" stop-color="#B4DC00"/>
<stop offset="0.491" stop-color="#AFDC00"/>
<stop offset="0.556" stop-color="#A1CA00"/>
<stop offset="0.759" stop-color="#7A9900"/>
<stop offset="0.914" stop-color="#617A00"/>
<stop offset="1" stop-color="#586E00"/>
</linearGradient>
<linearGradient id="paint41_linear" x1="66.183" y1="55.8245" x2="55.6898" y2="91.4575" gradientUnits="userSpaceOnUse">
<stop stop-color="#AFDC00" stop-opacity="0"/>
<stop offset="0.472" stop-color="#84A600" stop-opacity="0.472"/>
<stop offset="1" stop-color="#586E00"/>
</linearGradient>
<linearGradient id="paint42_linear" x1="112.518" y1="60.825" x2="36.0255" y2="64.1531" gradientUnits="userSpaceOnUse">
<stop offset="0.003" stop-color="#FFE000"/>
<stop offset="0.142" stop-color="#DCDE00"/>
<stop offset="0.274" stop-color="#C3DD00"/>
<stop offset="0.393" stop-color="#B4DC00"/>
<stop offset="0.491" stop-color="#AFDC00"/>
<stop offset="0.556" stop-color="#A1CA00"/>
<stop offset="0.759" stop-color="#7A9900"/>
<stop offset="0.914" stop-color="#617A00"/>
<stop offset="1" stop-color="#586E00"/>
</linearGradient>
<linearGradient id="paint43_linear" x1="75.907" y1="55.0187" x2="75.9117" y2="78.9903" gradientUnits="userSpaceOnUse">
<stop stop-color="#AFDC00" stop-opacity="0"/>
<stop offset="0.472" stop-color="#84A600" stop-opacity="0.472"/>
<stop offset="1" stop-color="#586E00"/>
</linearGradient>
<clipPath id="clip0">
<rect width="130.887" height="130.887" fill="white" transform="translate(29.1206 -68) rotate(31.3628)"/>
</clipPath>
</defs>
</svg>
